<?xml version="1.0" standalone="no"?>
<!DOCTYPE svg PUBLIC "-//W3C//DTD SVG 1.1//EN" "http://www.w3.org/Graphics/SVG/1.1/DTD/svg11.dtd" >
<!--
2013-9-30: Created.
-->
<svg>
<metadata>
Created by iconfont
</metadata>
<defs>

<font id="iconfont" horiz-adv-x="1024" >
  <font-face
    font-family="iconfont"
    font-weight="500"
    font-stretch="normal"
    units-per-em="1024"
    ascent="896"
    descent="-128"
  />
    <missing-glyph />
    
    <glyph glyph-name="x" unicode="x" horiz-adv-x="1001"
d="M281 543q-27 -1 -53 -1h-83q-18 0 -36.5 -6t-32.5 -18.5t-23 -32t-9 -45.5v-76h912v41q0 16 -0.5 30t-0.5 18q0 13 -5 29t-17 29.5t-31.5 22.5t-49.5 9h-133v-97h-438v97zM955 310v-52q0 -23 0.5 -52t0.5 -58t-10.5 -47.5t-26 -30t-33 -16t-31.5 -4.5q-14 -1 -29.5 -0.5
t-29.5 0.5h-32l-45 128h-439l-44 -128h-29h-34q-20 0 -45 1q-25 0 -41 9.5t-25.5 23t-13.5 29.5t-4 30v167h911zM163 247q-12 0 -21 -8.5t-9 -21.5t9 -21.5t21 -8.5q13 0 22 8.5t9 21.5t-9 21.5t-22 8.5zM316 123q-8 -26 -14 -48q-5 -19 -10.5 -37t-7.5 -25t-3 -15t1 -14.5
t9.5 -10.5t21.5 -4h37h67h81h80h64h36q23 0 34 12t2 38q-5 13 -9.5 30.5t-9.5 34.5q-5 19 -11 39h-368zM336 498v228q0 11 2.5 23t10 21.5t20.5 15.5t34 6h188q31 0 51.5 -14.5t20.5 -52.5v-227h-327z" />
    

    
    <glyph glyph-name="maozi" unicode="&#58982;" d="M989.184 217.088q0-20.48-15.872-34.304t-46.592-13.824l-816.128 0q-29.696 0-45.056 13.824t-15.36 34.304 16.384 34.304 46.08 13.824l814.08 0q30.72 0 46.592-13.824t15.872-34.304zM520.192 699.392q21.504 0 46.08-1.024t52.224-8.704 57.856-23.552 62.976-45.568q37.888-34.816 54.272-85.504t21.504-97.792q5.12-56.32-1.024-114.688l-587.776 0q-6.144 49.152-2.048 99.328 3.072 43.008 16.384 92.16t46.08 91.136q39.936 50.176 102.912 72.704t130.56 21.504z"  horiz-adv-x="1024" />

    
    <glyph glyph-name="zuoshang" unicode="&#59292;" d="M257.6 65.493q-16.32-16.32-34.56-19.2t-34.080 6.24-26.4 28.8-10.56 48.48v432.96q0 25.92 9.12 49.44t24.48 40.8 36.48 27.36 45.12 10.080q55.68 0 115.2-0.48t119.040-0.48 116.64-0.48 108.96-0.48q24.96 0 42.24-10.56t25.44-25.92 5.28-34.080-19.2-34.080q-18.24-18.24-47.52-47.040t-65.76-64.8-77.28-76.8-82.080-81.6-81.12-80.16-72.96-72.48-58.56-58.080-37.92-37.44z"  horiz-adv-x="1024" />

    
    <glyph glyph-name="youshang" unicode="&#59295;" d="M695.36 64.533l-54.72 54.72q-38.4 38.4-88.32 87.84t-106.56 105.12-108.96 107.52-96 95.040-67.68 67.2q-16.32 15.36-19.68 34.080t4.8 34.080 25.44 25.92 42.24 10.56h445.44q58.56 0 93.12-34.080t34.56-87.84v-436.8q0-28.8-10.080-48.48t-25.44-28.32-33.6-5.76-34.56 19.2z"  horiz-adv-x="1024" />

    
    <glyph glyph-name="zuoxia" unicode="&#59301;" d="M258.56 703.041l37.44-37.44q24.96-24.96 58.56-58.080t72.96-72.48 80.64-80.16 82.080-81.6 77.28-76.32 65.76-64.32 47.52-47.040q16.32-16.32 19.68-34.56t-4.8-34.080-25.44-26.4-42.24-10.56q-115.2 0-226.56-0.96t-224.64-0.96q-28.8 0-51.84 10.080t-38.88 27.36-24.48 40.8-8.64 49.44v432.96q0 28.8 10.080 48.96t25.92 28.8 34.56 5.76 35.040-19.2z"  horiz-adv-x="1024" />

    
    <glyph glyph-name="youxia" unicode="&#59306;" d="M772.096 652.288q17.408 17.408 39.424 22.528t40.96-2.048 31.744-26.624 12.8-50.176l0-461.824q0-27.648-9.216-52.224t-25.6-43.008-38.912-28.672-49.152-10.24l-490.496 0q-26.624 0-43.52 13.312t-23.04 32.768-1.024 41.472 22.528 39.424q25.6 25.6 70.144 69.12t98.304 96.256 110.592 109.056 107.52 105.984 90.112 88.576 56.832 56.32z"  horiz-adv-x="1024" />

    
    <glyph glyph-name="ditu" unicode="&#59099;" d="M273.5 556.533q5.4-20.7 12.15-45t15.3-49.5 19.35-49.95 23.4-46.35v-354.6l-225-55.8v562.5zM341 587.133q0 4.5-0.45 8.55t-0.45 8.55q0 40.5 15.75 75.6t42.75 61.65 63 41.85 77.4 15.3 77.4-15.3 63-41.85 42.75-61.65 15.75-75.6v-10.8q0-5.4-0.9-10.8-5.4-47.7-21.15-91.35t-40.050-84.15-55.8-77.85-67.5-71.55q-6.3-6.3-13.5-6.3t-13.5 6.3q-36.9 34.2-68.4 72t-55.8 79.2-40.050 85.95-20.25 92.25zM539 687.033q-18 0-33.3-6.3t-26.55-17.55-18-26.55-6.75-32.4 6.75-32.4 18-26.55 26.55-17.55 33.3-6.3 33.75 6.3 27 17.55 18 26.55 6.75 32.4-6.75 32.4-18 26.55-27 17.55-33.75 6.3zM399.5 292.833q26.1-28.8 50.85-52.2t44.55-41.4q23.4-20.7 44.1-36.9 10.8 9 24.3 20.7 11.7 9.9 27 25.2t35.1 34.2v-287.1l-225.9 55.8v281.7zM906.2 574.533v-563.4l-225-55.8v344.7q5.4 5.4 10.35 11.25t10.35 11.25q18 19.8 33.3 47.25t27.45 58.5 21.6 62.1 16.65 58.050z"  horiz-adv-x="1024" />

    
    <glyph glyph-name="jiaju" unicode="&#58984;" d="M933.875 409.313q0-24.469-8.438-42.188t-20.672-34.172-24.891-33.75-20.25-40.922q-2.531-6.75-4.641-21.516t-4.219-35.016-4.219-44.297-3.797-47.672q-4.219-55.688-8.438-122.344 0-7.594-5.062-12.656-4.219-5.063-14.344-8.859t-29.531-3.797q-20.25 0-34.172 3.797t-23.203 8.859q-10.125 5.063-17.719 12.656v24.469h-396.563v-24.469q-7.594-7.594-17.719-12.656-9.281-5.063-23.203-8.859t-33.328-3.797-30.375 3.797-14.344 8.859q-5.062 5.063-5.062 12.656-4.219 66.656-7.594 122.344-1.688 23.625-3.797 47.672t-4.219 44.297-4.219 35.016-4.641 21.516q-8.438 23.625-21.094 40.922t-24.891 33.75-20.672 34.172-8.438 42.188q0 48.094 34.594 73.828t92.813 25.734q20.25 0 34.594-7.172t24.891-18.563 17.297-26.156 10.969-30.797q-4.219 27-13.078 51.469t-27.422 39.656q-9.281 7.594-21.516 14.344t-26.156 12.656-27.844 10.969-24.891 7.594v7.594q0 8.438 0.422 27.422t8.438 42.188 27.422 48.516 58.219 45.984 99.984 33.75 153.141 13.078q91.125 0 152.297-13.078t99.984-33.75 58.641-45.984 27.844-48.516 8.438-42.188 0.422-27.422v-7.594q-10.969-2.531-24.891-7.172t-27.844-10.125-26.578-12.656-21.094-15.609q-14.344-14.344-23.625-37.125 10.969 11.812 27.844 20.25t43.031 8.438q59.063 0 93.234-25.734t34.172-73.828zM710.281 309.75q10.969 0 18.141 7.172t7.172 17.297q0 10.969-7.172 18.141t-18.141 7.172q0 5.062-15.609 13.5t-42.609 16.453-62.859 13.922-77.203 5.906-77.203-5.906-62.859-13.922-42.609-16.453-15.609-13.5q-10.125 0-17.297-7.172t-7.172-18.141q0-10.125 7.172-17.297t17.297-7.172q27.844 13.5 59.906 24.469 27 9.281 61.594 16.875t71.719 8.438h1.688q37.969-0.844 73.828-8.438t64.547-16.875q33.75-10.969 63.281-24.469z"  horiz-adv-x="1024" />

    
    <glyph glyph-name="guanlichushoufangyuan" unicode="&#59401;" d="M400.6212 317.4512l96.6595 0 0-16.0611-96.6595 0 0 16.0611ZM407.0711 140.1814l196.494 0 0-32.3221-196.494 0 0 32.3221ZM400.6212 269.069l96.6595 0 0-16.0611-96.6595 0 0 16.0611ZM925.4004 442.1216 572.0072 735.5297c-32.4514 27.0017-85.2468 27.0017-117.6981 0L100.9168 442.1216c-32.5513-27.1026-32.5513-70.868 0-97.8696h84.75009893707602V-18.11531781452163c0-54.9078 43.963-99.3756 98.2475-99.3756h458.48740201232016c54.2835 0 98.2465 44.4679 98.2465 99.3756V344.25199714593504h84.75109830148027C957.9507 371.2547 957.9507 415.02 925.4004 442.1216zM661.6212 43.417h-58.056076335450655v16.060111244576177H407.0711027786328v-16.060111244576177h-58.15401404706607V188.4636216645115h312.7041201795658V43.41696329888339zM687.5227 220.7867H400.6212049136749v-16.161042812972806h-53.19316914442414V304.9036753081411c-7.7401-7.1272-15.2823-13.6517-23.0234-19.6747-7.2454 18.1687-14.6877 34.2298-22.7265 48.3832 32.2525 27.7052 59.1474 59.9264 80.3849 96.6655l56.0703-12.0458c-4.9618-7.0262-9.8248-13.6517-14.7866-20.1763h74.23078921805732c-4.9618 12.1458-10.1216 24.6933-15.779 37.5415l56.567 10.8407c7.2444-15.6594 14.2909-31.7195 21.4354-48.3832h122.06436706254821v-32.221154057548986H550.5718363121056v-16.161042812972806h116.50690161057568v-32.221154057548986H550.5718363121056v-16.06111056703555h116.50690161057568v-32.32208562594561H550.5718363121056v-16.06111056703555H687.5227355401964V220.78670661291642zM400.6212 365.8344l96.6595 0 0-16.161-96.6595 0 0 16.161Z"  horiz-adv-x="1000" />

    
    <glyph glyph-name="shunfeng" unicode="&#59371;" d="M493.824 828.026c-241.378 0-437.055-195.667-437.055-437.037 0-241.367 195.676-437.037 437.055-437.037s437.055 195.668 437.055 437.037c0 241.369-195.676 437.037-437.055 437.037zM493.824 18.408c-205.779 0-372.596 166.81-372.596 372.58s166.817 372.58 372.596 372.58 372.596-166.81 372.596-372.58-166.817-372.58-372.596-372.58zM451.184 490.089v59.959c-29.231 29.23-210.866 51.965-210.866-69.953 0-116.921 168.892-111.425 168.892-171.883 0-66.955-96.439-68.454-161.897-7.995v-69.953c62.46-52.464 225.856-41.472 225.856 72.953 0 112.425-163.396 122.917-163.396 177.879 0 32.978 63.46 59.46 141.41 8.994zM516.143 195.289v350.762c0 0 108.931 48.967 216.862 0v-61.958c0 0-92.941 40.972-154.901 0v-288.804h-61.962zM630.903 390.988c-0.013-0.349-0.021-0.758-0.021-1.171 0-18.134 14.7-32.833 32.833-32.833 18.134 0 32.833 14.7 32.833 32.833 0 0.412-0.010 0.822-0.023 1.23 0.015 0.29 0.023 0.7 0.023 1.113 0 18.134-14.7 32.833-32.833 32.833-18.134 0-32.833-14.7-32.833-32.833 0-0.412 0.010-0.822 0.023-1.23z"  horiz-adv-x="1000" />

    
    <glyph glyph-name="gou" unicode="&#58958;" d="M834.9531 519.0805 419.218 71.383 195.3606 359.1889 277.3084 429.1414 419.218 281.2407 770.9939 583.0371Z"  horiz-adv-x="1000" />

    
    <glyph glyph-name="weixin_solid" unicode="&#58986;" d="M351.55 530.653c16.687 0 27.886 11.345 27.886 28.246 0 16.979-11.199 28.174-27.886 28.174-16.68 0-33.518-11.194-33.518-28.174-0-16.9 16.837-28.246 33.518-28.246zM507.433 587.073c-16.687 0-33.447-11.194-33.447-28.174 0-16.901 16.759-28.246 33.447-28.246 16.823 0 27.951 11.345 27.951 28.246 0 16.978-11.128 28.174-27.951 28.174zM702.387 378.221c16.759 0 27.95 11.199 27.95 22.541 0 11.269-11.191 22.615-27.95 22.615-10.977 0-22.034-11.345-22.034-22.615 0.001-11.341 11.057-22.541 22.034-22.541zM579.88 378.221c16.901 0 27.878 11.199 27.878 22.541 0 11.269-10.977 22.615-27.878 22.615-11.050 0-22.248-11.345-22.248-22.615 0-11.341 11.198-22.541 22.248-22.541zM76.754 412.324c0-242.515 196.569-439.074 439.090-439.074 242.522 0 439.090 196.56 439.090 439.074s-196.569 439.071-439.090 439.071c-242.521 0-439.090-196.557-439.090-439.071zM627.226 525.897c-105.821 0-189.393-80.057-189.393-178.63 0-16.466 2.565-32.273 6.883-47.345-6.883-0.586-13.764-0.878-20.783-0.878-27.815 0-50.205 5.706-78.013 11.341l-77.87-39.59 22.248 67.911c-55.766 39.515-89.132 90.377-89.132 152.36 0 107.424 100.332 192.018 222.768 192.018 109.551 0 205.495-67.615 224.734-158.505-7.018 0.805-14.194 1.319-21.44 1.319zM830.526 349.904c0-50.861-33.296-95.94-78.013-129.891l16.759-56.496-61.104 33.881c-22.327-5.635-44.639-11.269-66.821-11.269-105.962 0-189.536 73.399-189.536 163.776 0 90.301 83.574 163.844 189.536 163.844 100.039-0.001 189.179-73.544 189.179-163.845z"  horiz-adv-x="1000" />

    
    <glyph glyph-name="tianjia" unicode="&#59053;" d="M921.6 315.733h-341.333v-341.333h-136.533v341.333h-341.333v136.533h341.333v341.333h136.533v-341.333h341.333v-136.533z"  horiz-adv-x="1024" />

    
    <glyph glyph-name="xiazai" unicode="&#59283;" d="M399.024 543.139c0 0-54.635 52.551-128.771 9.63-66.335-40.971-54.622-115.96-54.622-115.96s-147.354-28.627-147.354-178.856c3.308-150.017 160.033-151.526 160.033-151.526l312.249 0.473-144.872 130.951 80.276-0.872 0.013 158.667 102.916 0.7 0.737-158.931 78.429-1.115-117.5-129.873h264.27c0 0 145.861-0.149 166.346 142.562 9.757 156.079-140.982 186.842-140.982 186.842s17.153 231.047-194.527 257.386c-181.44 18.532-236.641-150.078-236.641-150.078z"  horiz-adv-x="1024" />

    
    <glyph glyph-name="dianliangceliang" unicode="&#59100;" d="M561.554 339.399l65.301 149.889-15.853 8.295-87.594-141.765c-3.964 0.599-7.997 1.002-12.132 1.002-45.083 0-81.614-36.532-81.614-81.603 0-45.079 36.532-81.615 81.614-81.615 45.058 0 81.602 36.535 81.602 81.615-0.001 26.083-12.282 49.248-31.325 64.185zM163.024 110.581c-18.709 41.441-30.463 86.752-33.543 134.461l64.431 8.572c-0.075 2.754-0.212 5.485-0.212 8.249 0 11.612 0.662 23.076 1.884 34.368h-66.067c3.394 51.799 16.861 100.81 38.533 145.038l64.426-27.248c6.421 11.728 13.612 22.986 21.412 33.77l-61.42 36.245c26.631 40.358 60.589 75.337 99.95 103.078l44.892-59.611c10.438 6.844 21.292 13.089 32.525 18.699l-37.258 65.67c40.45 21.602 85.197 36.049 132.608 41.797l9.758-76.361c11.935 1.36 24.044 2.131 36.337 2.131v77.11c47.951 0 93.792-8.976 136.087-25.207l-28.689-70.577c11.683-4.195 23.030-9.079 34.034-14.563l37.258 65.67c42.246-22.546 79.771-52.86 110.785-89.036l-57.029-44.685c8.915-9.587 17.234-19.725 24.93-30.357l61.419 36.245c27.040-41.004 46.534-87.502 56.442-137.505l-66.846-8.882c3.308-13.489 5.773-27.316 7.283-41.418h66.084c0.553-8.535 0.944-17.11 0.944-25.785 0-57.074-12.373-111.188-34.402-159.924 11.257-13.075 21.843-26.727 31.59-41.014 39.657 66.315 62.513 143.828 62.513 226.71 0 244.338-198.081 442.407-442.406 442.407-244.337 0-442.413-198.070-442.413-442.407 0-82.881 22.847-160.396 62.502-226.71 9.763 14.321 20.381 27.985 31.66 41.074z"  horiz-adv-x="1024" />

    
    <glyph glyph-name="guanwang" unicode="&#59114;" d="M879.56 296.732c-9.247-67.975-46.235-122.734-110.963-164.275s-141.016-62.312-228.862-62.312c-110.963 0-210.698 20.257-273.942 87.802-29.658 31.676-39.584 38.909-53.799 64.571 0 0-37.528-46.177-43.175-108.294-0.99-10.885-10.087-88.699 51.486-92.258 75.321-4.353 165.926 24.493 225.784 54.030 15.267-14.559-85.407-69.453-185.505-87.419-55.058-9.882-95.010 9.979-120 32.471-72.559 65.303 21.176 272.471 33.882 296.471 0 0 105.882 224.471 290.558 340.614-186.088-63.909-313.148-240.379-313.148-240.379 13.432 68.35 60.157 177.778 113.916 221.689 71.664 58.535 164.768 96.725 275.731 96.725 97.093 0 156.706-24.766 237.475-85.395 71.445-53.63 100.561-142.666 100.561-293.724h-469.329c0 0-8.63-71.894 35.294-105.882s79.058-28.236 79.058-28.236 38.225-3.83 70.588 16.942c32.364 20.77 40.942 57.882 40.942 57.882l243.448-1.023zM637.524 455.873c0 0 12.753 50.713-15.72 77.965-47.81 45.761-94.398 40.623-94.398 40.623s-64.942 4.236-97.412-43.764c-24.839-36.718-18.345-73.463-18.345-73.463l225.875-1.36zM879.111 630.931c0 0 49.412 125.647-22.588 159.529 0 0-93.176 37.352-234.353-70.588s-18.353 4.236-18.353 4.236 121.335 113.752 254.118 84.706c90.353-19.764 21.176-177.882 21.176-177.882z"  horiz-adv-x="1024" />

    
    <glyph glyph-name="liebiao" unicode="&#59398;" d="M481.46 470.762c0-36.329-29.724-66.052-66.052-66.052h-234.763c-36.329 0-66.052 29.724-66.052 66.052v244.756c0 36.329 29.724 66.052 66.052 66.052h234.764c36.329 0 66.052-29.724 66.052-66.052v-244.756zM481.46 51.695c0-36.33-29.724-66.052-66.052-66.052h-234.763c-36.329 0-66.052 29.724-66.052 66.052v244.751c0 36.33 29.724 66.052 66.052 66.052h234.764c36.329 0 66.052-29.724 66.052-66.052v-244.751zM910.517 470.762c0-36.329-29.724-66.052-66.052-66.052h-234.775c-36.33 0-66.052 29.724-66.052 66.052v244.756c0 36.329 29.724 66.052 66.052 66.052h234.775c36.33 0 66.052-29.724 66.052-66.052v-244.756zM910.519 51.695c0-36.33-29.724-66.052-66.052-66.052h-234.777c-36.33 0-66.052 29.724-66.052 66.052v244.751c0 36.33 29.724 66.052 66.052 66.052h234.777c36.33 0 66.052-29.724 66.052-66.052v-244.751z"  horiz-adv-x="1024" />

    
    <glyph glyph-name="xingxing_solid" unicode="&#59092;" d="M481.553 753.436c16.762 35.554 44.196 35.554 60.957 0l72.608-153.974c16.761-35.551 62.402-69.497 101.405-75.425l156.836-23.846c38.999-5.927 48.365-33.78 20.82-61.891l-115.937-118.27c-27.566-28.113-44.907-82.832-38.557-121.593l27.929-170.362c6.351-38.766-16.702-54.935-51.235-35.929l-141.561 77.897c-34.533 18.996-91.038 18.996-125.573 0l-141.568-77.897c-34.526-19.007-57.589-2.837-51.231 35.929l27.914 170.362c6.359 38.759-10.993 93.479-38.549 121.593l-115.917 118.268c-27.556 28.111-18.191 55.965 20.817 61.893l156.832 23.846c39.008 5.927 84.64 39.873 101.403 75.425l72.612 153.975z"  horiz-adv-x="1024" />

    
    <glyph glyph-name="kecheng" unicode="&#59120;" d="M672.118 780.989c-16.745 0-30.28-13.294-30.28-29.584v-728.326c0-16.345 13.536-29.577 30.28-29.577 16.715 0 30.254 13.233 30.254 29.577v728.326c-0.001 16.289-13.539 29.584-30.254 29.584zM754.447 764.116c-7.318 0-13.282-5.83-13.282-12.955v-727.801c0-7.161 5.964-12.991 13.282-12.991 7.266 0 13.227 5.83 13.227 12.991v727.801c0 7.125-5.962 12.955-13.227 12.955zM825.029 764.116c-7.266 0-13.201-5.83-13.201-12.955v-727.801c0-7.161 5.935-12.991 13.201-12.991 7.327 0 13.253 5.83 13.253 12.991v727.801c0 7.125-5.926 12.955-13.253 12.955zM905.405 780.989c-16.718 0-30.286-13.294-30.286-29.584v-728.326c0-16.345 13.567-29.577 30.286-29.577 16.745 0 30.28 13.233 30.28 29.577v728.326c0 16.289-13.536 29.584-30.28 29.584zM531.379 780.152l-112.952 0.114c-29.828 0-54.036-23.616-54.066-52.883l-0.367-678.671c0-29.106 24.15-52.878 54.033-52.908l112.896-0.055c29.916 0 54.153 23.694 54.153 52.826l0.341 678.671c0.11 29.186-24.125 52.907-54.038 52.907zM520.597 526.284l-91.669 0.113c-10.415 0-18.958 8.324-18.958 18.506 0.055 10.235 8.543 18.529 19.013 18.529l91.669-0.079c10.415 0 18.932-8.324 18.932-18.534-0.030-10.182-8.517-18.534-18.988-18.534zM520.707 605.248l-91.666 0.029c-10.417 0.053-18.958 8.347-18.958 18.529 0 10.267 8.541 18.534 18.958 18.534l91.666-0.058c10.418 0 18.932-8.345 18.932-18.529-0.055-10.181-8.513-18.505-18.932-18.505zM257.253 780.152l-112.84 0.114c-29.881 0-54.121-23.616-54.175-52.883l-0.283-678.671c-0.084-29.106 24.123-52.878 53.978-52.908l112.84-0.055c29.913 0 54.178 23.694 54.237 52.826l0.28 678.671c0.057 29.186-24.124 52.907-54.037 52.907zM246.582 526.284l-91.695 0.113c-10.412 0-18.958 8.324-18.958 18.506 0.058 10.235 8.546 18.529 18.987 18.529l91.698-0.079c10.415 0 18.899-8.324 18.899-18.534 0-10.182-8.513-18.534-18.931-18.534zM246.582 605.248l-91.611 0.029c-10.415 0.053-18.928 8.347-18.928 18.529 0 10.267 8.513 18.534 18.928 18.534l91.611-0.058c10.447 0 18.931-8.345 18.931-18.529 0-10.181-8.513-18.505-18.931-18.505z"  horiz-adv-x="1024" />

    
    <glyph glyph-name="canyuwenti" unicode="&#59123;" d="M221.113344 674.772736c0.00512-372.989952 0.00512-450.116608 0.00512-823.064576 97.385472 93.177856 193.87392 186.2656 291.280896 280.67328 97.406976-94.350336 196.329472-189.961216 293.709824-283.118592 0 372.959232 0 450.095104 0.01024 823.09632C625.277952 772.306688 402.214912 763.990784 221.113344 674.772736zM651.001856 222.581504l-138.64448 63.270912-138.64448-63.270912 19.003392 147.826688L288.027648 479.150848l150.381568 28.079104 73.947136 130.470912 73.936896-130.470912 150.387712-28.079104L631.999488 370.408192 651.001856 222.581504z"  horiz-adv-x="1024" />

    
    <glyph glyph-name="huizhang" unicode="&#58987;" d="M780.367872 476.756736c0-148.871168-120.68352-269.554688-269.554688-269.554688-74.43456 0-141.824 30.171136-190.604288 78.951424-48.779264 48.780288-78.9504 116.168704-78.9504 190.604288 0 148.871168 120.68352 269.554688 269.554688 269.554688C659.683328 746.311424 780.367872 625.627904 780.367872 476.756736zM510.81216 206.690048c-72.137728 0-139.957248 28.092416-190.96576 79.100928-51.008512 51.008512-79.100928 118.829056-79.100928 190.96576 0 72.137728 28.092416 139.957248 79.100928 190.96576 51.008512 51.008512 118.828032 79.100928 190.96576 79.100928 72.137728 0 139.957248-28.092416 190.96576-79.100928 51.008512-51.008512 79.100928-118.828032 79.100928-190.96576s-28.092416-139.957248-79.100928-190.96576S582.949888 206.690048 510.81216 206.690048zM510.81216 745.799424c-148.350976 0-269.042688-120.691712-269.042688-269.042688 0-71.863296 27.98592-139.425792 78.800896-190.241792 50.816-50.816 118.378496-78.800896 190.241792-78.800896 148.350976 0 269.042688 120.691712 269.042688 269.042688C779.855872 625.107712 659.163136 745.799424 510.81216 745.799424zM253.545472-113.805568M192.108544-83.087616c0 0 75.82208-66.624512 190.51008-65.600512-1.024 1.024 64.498688 363.461632 64.498688 363.461632l-62.408704 23.687168C384.707584 238.460672 194.202624-56.39808 192.108544-83.087616zM380.00128-149.212416c-58.587136 0.001024-106.63936 17.869824-136.634368 32.861184-32.503808 16.244736-51.40992 32.714752-51.597312 32.878592l-0.192512 0.169984 0.02048 0.254976c2.080768 26.513408 184.89856 309.741568 192.679936 321.785856l0.224256 0.34816 63.194112-23.985152-0.075776-0.418816c-0.643072-3.5584-63.916032-353.62816-64.498688-363.15136l0.72192-0.720896-1.220608-0.011264C381.746176-149.20832 380.873728-149.212416 380.00128-149.212416zM192.644096-82.8736c2.091008-1.787904 20.591616-17.277952 51.213312-32.577536 30.265344-15.121408 78.99136-33.2032 138.346496-32.728064 0.346112 4.067328 4.310016 28.35456 31.776768 181.696512 15.506432 86.57408 31.326208 174.117888 32.557056 180.928512l-61.62432 23.389184C377.41056 226.208512 195.801088-55.489792 192.644096-82.8736zM832.140288-83.087616c0 0-75.82208-66.624512-190.51008-65.600512 1.024 1.024-64.497664 363.461632-64.497664 363.461632l62.40768 23.687168C639.540224 238.460672 830.046208-56.39808 832.140288-83.087616zM644.247552-149.212416c-0.872448 0-1.744896 0.004096-2.622464 0.012288l-1.219584 0.011264 0.720896 0.720896c-0.581632 9.5232-63.854592 359.59296-64.497664 363.15136l-0.075776 0.418816 63.193088 23.985152 0.22528-0.34816c7.7824-12.044288 190.600192-295.273472 192.679936-321.785856l0.021504-0.254976-0.192512-0.169984c-0.187392-0.16384-19.093504-16.633856-51.597312-32.878592C750.886912-131.342592 702.834688-149.212416 644.247552-149.212416zM642.046976-148.1792c59.339776-0.453632 108.082176 17.606656 138.345472 32.728064 30.621696 15.299584 49.122304 30.789632 51.214336 32.577536-3.156992 27.383808-184.768512 309.082112-192.27136 320.707584l-61.622272-23.389184c1.230848-6.810624 17.0496-94.355456 32.557056-180.928512C637.735936-119.82464 641.69984-144.111872 642.046976-148.1792z"  horiz-adv-x="1024" />

    
    <glyph glyph-name="zhufang" unicode="&#59404;" d="M764.509184 424.445696 764.509184 637.471488 669.568 637.471488 669.568 530.098944 512.499712 704.939776 198.915072 355.932928 826.084352 355.932928ZM198.915072-54.341888l627.16928 0 0-59.917312-627.16928 0 0 59.917312ZM198.915072 324.439808l0-345.7536 627.16928 0L826.084352 324.439808 198.915072 324.439808zM481.620992 103.12576 292.38272 103.12576 292.38272 260.930304 481.620992 260.930304 481.620992 103.12576zM733.75232 103.12576 544.484352 103.12576 544.484352 260.930304l189.267968 0L733.75232 103.12576z"  horiz-adv-x="1024" />

    
    <glyph glyph-name="jiahao" unicode="&#59487;" d="M901.444608 410.831616 623.50336 410.831616 623.50336 688.777984c0 30.671872-24.870912 55.586816-55.584768 55.586816L456.733696 744.3648c-30.73024 0-55.583744-24.916992-55.583744-55.586816l0-277.946368L123.198464 410.831616c-30.727168 0-55.580672-24.869888-55.580672-55.589888l0-111.177728c0-30.732288 24.861696-55.58784 55.580672-55.58784l277.952512 0 0-277.946368c0-30.734336 24.86272-55.589888 55.583744-55.589888l111.183872 0c30.724096 0 55.584768 24.863744 55.584768 55.589888L623.50336 188.477184l277.946368 0c30.726144 0 55.585792 24.86784 55.585792 55.58784L957.03552 355.242752C957.036544 385.963776 932.166656 410.831616 901.444608 410.831616z"  horiz-adv-x="1024" />

    
    <glyph glyph-name="zhanshi" unicode="&#59284;" d="M788.39 424.379l-177.332 176.634c0 0-38.676 36.75-82.362-0.199-29.596-29.597-79.335-79.337-104.727-104.731l-25.717 24.705c-19.54 18.556-51.223 18.556-70.765 0l-92.823-89.171 0.139-0.197c-7.124-4.37-11.893-12.207-11.893-21.179 0-13.727 11.129-24.854 24.854-24.854 5.9 0 11.31 2.064 15.571 5.498l0.471-0.67c0.484 0.78 0.933 1.575 1.421 2.351 1.036 1.023 1.969 2.145 2.814 3.334l77.136 74.49c9.772 9.279 25.612 9.279 35.381 0l77.476-74.817c0.754-1.095 1.602-2.119 2.518-3.079 0.47-0.753 0.907-1.523 1.377-2.277l0.495 0.505c4.337-3.692 9.95-5.933 16.092-5.933 13.726 0 24.854 11.127 24.854 24.854 0 8.413-4.191 15.836-10.588 20.333l-33.241 31.932 86.275 85.767c0 0 21.413 20.492 46.483 1.623 24.305-24.612 157.415-159.084 157.415-159.084l0.916 0.809c4.383-3.871 10.123-6.239 16.429-6.239 13.727 0 24.854 11.127 24.854 24.854 0 5.204-1.605 10.031-4.339 14.023l0.815 0.716zM325.586 613.909c0-20.59 16.692-37.283 37.283-37.283s37.283 16.692 37.283 37.283c0 20.59-16.692 37.283-37.283 37.283-20.59 0-37.283-16.692-37.283-37.283zM897.255 726.887c0 33.694-27.271 61.008-60.912 61.008h-648.685c-33.642 0-60.912-27.314-60.912-61.008v-436.094h770.509v436.094zM847.545 340.503h-671.089v366.979c0 16.959 13.682 30.704 30.56 30.704h609.97c16.878 0 30.56-13.746 30.56-30.704v-366.979zM903.469 253.51h-782.937c-10.295 0-18.641-8.346-18.641-18.641v-12.428c0-10.295 8.346-18.641 18.641-18.641h354.186v-205.055c0-10.295 8.346-18.641 18.641-18.641h37.283c10.295 0 18.641 8.346 18.641 18.641v205.055h354.186c10.295 0 18.641 8.346 18.641 18.641v12.428c0 10.295-8.346 18.641-18.641 18.641z"  horiz-adv-x="1024" />

    
    <glyph glyph-name="caret" unicode="&#59488;" d="M242.967552 429.662976 527.85664 145.167104 812.745728 429.662976 754.819072 487.588608 527.857664 260.938496 300.894208 487.588608Z"  horiz-adv-x="1024" />

    
    <glyph glyph-name="shuaxin" unicode="&#58895;" d="M951.844 123.165l-92.879 137.37c-3.656 5.245-11.283 9.217-20.578 10.647-9.218 1.351-19.069 0-26.377-3.814l-189.253-97.089c-8.582-4.369-12.315-11.122-9.853-17.797 2.622-6.593 11.124-11.838 21.929-13.426l49.975-7.469c-49.658-58.317-115.442-93.751-179.639-93.751-125.056 0-264.573 137.211-264.573 333.853 0 23.2-31.145 42.189-69.599 42.189s-69.599-18.989-69.599-42.189c0-234.381 177.334-418.072 403.77-418.072 127.916 0 242.803 57.76 317.724 157.154l95.819-14.459c2.462-0.319 4.846-0.477 7.23-0.477 0.158 0 0.158 0 0.397 0 16.446 0 29.794 8.024 29.794 17.955 0 3.497-1.589 6.595-4.289 9.376v0zM185.934 503.894c-9.296 1.43-17.002 5.244-20.578 10.646l-94.626 139.756c-4.29 6.277-2.224 13.666 5.084 18.672 7.31 5.244 18.91 7.388 29.715 5.8l95.898-14.46c74.923 99.234 189.809 157.233 317.726 157.233 226.435 0 403.769-183.77 403.769-418.151 0-23.358-31.144-42.189-69.6-42.189-38.453 0-69.598 18.83-69.598 42.189 0 196.642-139.437 333.854-264.571 333.854-64.197 0-129.983-35.434-179.64-93.752l49.975-7.469c10.884-1.827 19.306-6.832 21.928-13.427 2.543-6.674-1.272-13.665-9.851-18.035l-189.332-97.011c-5.403-2.78-12.236-4.132-19.148-4.132-2.463 0-4.847 0.16-7.151 0.477z"  horiz-adv-x="1024" />

    
    <glyph glyph-name="arrowright" unicode="&#59408;" d="M63.962 735.979v-895.449h895.486v895.449h-895.486zM576.16 352.262l0.128 127.913 191.751-191.742-191.941-192.060-0.064 127.785-319.826 0.032-0.354 127.944 320.307 0.128z"  horiz-adv-x="1024" />

    
    <glyph glyph-name="close" unicode="&#59415;" d="M184.64768-24.34176c3.9936-3.9936 9.23648-5.98016 14.47936-5.98016 5.24288 0 10.48576 2.00704 14.49984 6.00064l292.70016 293.04832 292.70016-293.04832c3.9936-4.01408 9.23648-6.00064 14.49984-6.00064 5.24288 0 10.48576 2.00704 14.47936 5.98016 8.00768 7.9872 8.00768 20.95104 0.02048 28.95872L535.61344 297.35808 828.0064 590.07872c7.9872 8.00768 7.9872 20.97152-0.02048 28.95872-8.02816 8.00768-20.97152 8.00768-28.95872-0.02048L506.30656 325.96864 213.6064 619.01696c-8.00768 8.00768-20.97152 8.00768-28.95872 0.02048-8.00768-7.9872-8.00768-20.95104-0.02048-28.95872l292.37248-292.72064L184.6272 4.61696C176.64-3.37024 176.64-16.35456 184.64768-24.34176z"  horiz-adv-x="1024" />

    
    <glyph glyph-name="huizhi" unicode="&#59058;" d="M214.578 658.154l20.499-20.535-83.959-83.991 65.422-65.416 84.437 84.36 19.168-19.167-84.439-84.36 64.605-64.602 191.93 191.883-233.667 232.325-191.225-191.255 63.273-63.233zM724.352 364.259l-191.966-191.956 64.605-64.567 84.439 84.398 19.166-19.168-84.437-84.434 65.492-65.415 83.994 83.99 20.499-20.498-83.994-83.991 63.236-63.27 191.263 191.256zM925.42 609.795c23.422 23.421 23.572 61.197 0.37 84.397l-105.011 105.043c-23.237 23.198-60.98 23.014-84.401-0.371l-64.865-64.898 189.043-189.072 64.864 64.901zM91.807-35.122l91.727 33.447-58.314 58.312zM134.987 86.573l78.481-78.477 158.071 56.166-180.384 180.377zM651.089 714.728l-445.281-445.263 190.56-190.553 445.28 445.299-190.559 190.515zM292.32 269.834l358.399 358.387 20.87-20.868-358.4-358.386-20.869 20.867zM334.056 228.061l358.403 358.423 20.905-20.869-358.402-358.421-20.906 20.867zM375.831 186.289l358.402 358.423 20.87-20.87-358.363-358.423-20.907 20.87z"  horiz-adv-x="1024" />

    
    <glyph glyph-name="xingxing" unicode="&#59093;" d="M751.97-17.908c-6.501 0-13.027 1.553-19.008 4.697l-217.289 114.223-217.289-114.223c-13.759-7.25-30.46-6.029-43.033 3.106-12.586 9.142-18.886 24.638-16.258 39.968l41.491 241.94-175.789 171.35c-11.137 10.854-15.148 27.092-10.339 41.889 4.807 14.79 17.597 25.57 32.989 27.812l242.94 35.301 108.642 220.127c6.889 13.948 21.090 22.778 36.647 22.778s29.759-8.829 36.647-22.778l108.642-220.127 242.94-35.301c15.392-2.241 28.18-13.022 32.989-27.812 4.807-14.796 0.798-31.034-10.339-41.889l-175.79-171.35 41.491-241.94c2.628-15.33-3.671-30.826-16.258-39.968-7.116-5.169-15.551-7.803-24.025-7.803zM515.673 188.043c6.533 0 13.066-1.566 19.014-4.697l163.014-85.693-31.127 181.51c-2.277 13.255 2.117 26.78 11.753 36.167l131.886 128.551-182.262 26.478c-13.311 1.934-24.817 10.295-30.772 22.353l-81.504 165.143-81.504-165.143c-5.955-12.057-17.461-20.419-30.772-22.353l-182.261-26.48 131.886-128.551c9.632-9.388 14.029-22.913 11.753-36.167l-31.127-181.51 163.014 85.693c5.951 3.133 12.482 4.698 19.015 4.698z"  horiz-adv-x="1024" />

    
    <glyph glyph-name="zhuyi" unicode="&#59239;" d="M934.09 90.22066668000002c-35.148 57.034-332.293 552.991-348.336 577.053-31.801 47.722-111.49 46.876-143.292-2.337-15.197-23.579-322.578-529.292-355.067-577.537-32.445-48.246-27.365-114.587 58.726-114.427 101.493 0.202 690.582 1.249 746.609-0.161 56.067-1.371 76.425 60.378 41.357 117.41099999zM510.382 78.93766668c-28.98 0-52.481 23.174-52.481 51.713 0 28.538 23.5 51.671 52.481 51.671 28.979 0 52.48-23.136 52.48-51.671 0-28.539-23.498-51.713-52.48-51.713zM563.708 280.82666668c0-25.794-28.336-47.722-54.494-47.722-26.199 0-50.425 23.779-50.425 49.577v215.91599999c0 25.755 24.225 48.608 50.425 48.60800001 26.159 0 54.494-23.942 54.494-49.735v-216.641z"  horiz-adv-x="1024" />

    
    <glyph glyph-name="shezhi" unicode="&#59101;" d="M904.613137 384.739986l-71.833922 15.940041c-5.598738 17.908882-12.923863 35.052331-21.341925 51.538817l38.880065 64.74663c14.497773 23.200398 21.822899 57.311287 0 79.178317l-39.624039 39.578414c-10.692965 10.714016-25.038259 15.21861-39.493051 15.21861-15.022751 0-30.17649-4.854565-41.52542-12.748349l-63.000381-40.146349c-16.356173 8.484232-33.435853 15.744589-51.190943 21.494547l-16.139223 72.705905c-4.809736 26.676569-28.120583 55.539944-59.041047 55.539944l-55.958722 0c-30.920464 0-49.857521-29.30135-56.002726-55.977919l-17.952596-71.830979c-18.981061-6.056949-37.173121-13.775748-54.514778-22.915919l-64.594757 41.129746c-11.350977 7.893784-26.50267 12.748349-41.527467 12.748349-14.452746 0-28.777573-4.504594-39.493051-15.21861l-39.580036-39.578414c-21.866903-21.86703-14.541777-55.977919 0-79.178317l40.891968-68.157309c-7.675111-15.459087-14.476283-31.422663-19.724012-48.128137l-71.831875-15.940041c-26.679709-4.810562-55.544266-28.119431-55.544266-59.039651l0-55.977919c0-30.919197 29.30255-49.855478 55.980213-55.977919l72.752888-18.170848c5.029756-15.415085 11.283436-30.241768 18.41208-44.585451l-40.935972-68.222801c-14.519263-23.177885-21.845412-57.289798 0-79.156828l39.601526-39.579437c10.692965-10.715039 25.038259-15.241123 39.493051-15.241123 15.022751 0 30.17649 4.876054 41.52542 12.748349l64.727792 41.261753c17.450132-9.205663 35.753737-17.012466 54.843273-23.046902l17.909616-71.634504c6.122692-26.676569 25.059749-55.977919 55.980213-55.977919l55.980213 0c30.920464 0 54.230287 28.863375 59.041047 55.539944l16.160714 72.880891c17.581121 5.686513 34.440781 12.857842 50.600471 21.23258l63.130346-40.255843c11.348931-7.872295 26.50267-12.748349 41.52542-12.748349 14.454792 0 28.800086 4.526083 39.493051 15.241123l39.624039 39.579437c21.822899 21.866007 14.497773 55.977919 0 79.156828l-38.924069 64.832588c7.828613 15.372106 14.607271 31.357172 20.052507 47.975664l72.730375 18.170848c26.677662 6.122441 55.980213 25.058722 55.980213 55.977919l0 55.977919C960.15638 356.620555 931.313313 379.929424 904.613137 384.739986zM915.371596 269.722416c0-2.229784-8.244093-9.359158-22.041895-12.529361l-72.730375-18.170848-24.009794-5.991458-7.697625-23.527856c-4.526269-13.797237-10.38596-27.791973-17.406128-41.590234l-11.261946-22.084994 12.770361-21.275559 39.361039-65.534576c7.063149-11.304464 7.82759-22.215978 6.320198-23.725354l-39.689534-39.643905c-1.924918-1.923816-6.451187-2.076288-7.784609-2.076288-5.531197 0-11.829904 1.858324-16.028702 4.789073l-0.69997 0.480954-0.72146 0.459464-63.130346 40.255843-21.758428 13.863752-22.917881-11.851932c-14.409765-7.478322-29.126534-13.644765-43.77781-18.411325l-24.403783-7.871271-5.53222-25.01472-16.160714-72.90238-0.195459-0.874927-0.153502-0.873903c-1.683408-9.271154-10.125006-18.695804-14.978747-18.695804l-55.980213 0c-2.208385 0-9.359542 8.243755-12.529874 22.063505l-17.909616 71.634504-6.078688 24.2718-23.878805 7.566326c-15.920227 5.02955-31.882411 11.742439-47.431162 19.942191L353.907553 54.556938l-21.957981-13.994736-64.726769-41.261753-0.72146-0.459464-0.69997-0.480954c-4.197774-2.929726-10.496482-4.789073-16.028702-4.789073-1.334446 0-5.860715 0.152473-7.828613 2.12029l-39.580036 39.579437c-1.573909 1.552356-0.808445 12.419867 6.714187 24.446785l40.933925 68.24429 12.618906 21.013593-10.911961 21.954011c-6.603665 13.250792-11.806367 25.846668-15.940694 38.527478l-7.674088 23.571858-24.055844 5.991458-73.582824 18.367323c-12.967867 2.973728-21.21196 10.103102-21.21196 12.332886l0 55.977919c0 4.854565 9.425036 13.294794 18.697594 14.956643l0.89543 0.174985 0.873939 0.174985 71.833922 15.963577 25.258278 5.597485 7.761072 24.687262c4.133303 13.142322 9.729994 26.764574 17.102194 41.655725l10.909914 21.932522-12.616859 21.013593-41.351451 68.879764c-7.062125 11.304464-7.850103 22.171975-6.274147 23.746844l39.577989 39.578414c1.902404 1.901303 6.122692 2.098801 7.828613 2.098801 5.554734 0 11.808414-1.858324 15.984698-4.745071l0.72146-0.502443 0.765464-0.480954 64.59578-41.152259 21.93342-13.950733 23.003843 12.113899c15.285751 8.068769 31.183464 14.737656 47.25617 19.8767l23.77033 7.587815 6.057198 24.227798 18.149079 72.640414c2.996363 12.987802 10.146497 21.231557 12.354882 21.231557l55.958722 0c4.854764 0 13.295339-9.423627 14.97977-18.695804l0.152479-0.896416 0.196483-0.874927 16.1382-72.705905 5.53222-25.01472 24.382292-7.871271c14.891762-4.833075 29.805014-11.107989 44.368281-18.652825l22.916858-11.873422 21.779918 13.862729 63.000381 40.146349 0.72146 0.480954 0.72146 0.480954c4.177307 2.908236 10.474991 4.76656 16.007211 4.76656 1.355936 0 5.860715-0.130983 7.851127-2.12029l39.557522-39.512922c1.573909-1.573845 0.809468-12.507872-6.691673-24.490787l-38.880065-64.768119-12.791852-21.298072 11.304927-22.128997c7.917644-15.481599 13.952328-30.04427 18.478597-44.519959l7.740605-24.752754 25.301259-5.597485 71.833922-15.963577 0.873939-0.174985 0.896453-0.174985c9.272557-1.661849 18.69657-10.102079 18.69657-14.956643L915.36955 269.722416zM512.685132 479.378413c-99.015071 0-179.575083-80.447217-179.575083-179.305759 0-98.836029 80.560011-179.282223 179.575083-179.282223s179.619087 80.446193 179.619087 179.282223C692.303195 398.931197 611.700203 479.378413 512.685132 479.378413zM513.079121 164.566448c-74.654269 0-135.402261 60.570517-135.402261 135.025253 0 74.433246 60.747992 135.003763 135.402261 135.003763 74.698273 0 135.445241-60.569494 135.445241-135.003763C648.524362 225.137988 587.777394 164.566448 513.079121 164.566448z"  horiz-adv-x="1024" />

    
    <glyph glyph-name="daohang" unicode="&#58897;" d="M553.701-22.821c-1.171 0-2.341 0.075-3.535 0.248-11.224 1.568-20.061 10.403-21.628 21.652l-49.452 352.864-352.291 49.538c-11.25 1.567-20.061 10.403-21.627 21.652-1.593 11.248 4.478 22.149 14.833 26.767l761.527 338.689c9.608 4.218 20.833 2.178 28.273-5.263 7.443-7.43 9.508-18.679 5.253-28.31l-338.156-762.727c-4.132-9.272-13.265-15.108-23.196-15.108zM221.691 439.496l283.402-39.857c11.249-1.568 20.061-10.403 21.627-21.652l39.796-283.838 275.387 621.158-620.212-275.812z"  horiz-adv-x="1024" />

    
    <glyph glyph-name="youxiang" unicode="&#59201;" d="M934.848 623.168l0.512 0.384-846.080-0.384zM512.256 253.248l-28.032 20.544-92.992 68.608-268.608-197.952h779.008l-268.48 197.952-93.12-68.608zM88.64 565.184v-387.328l262.976 193.728zM935.36 177.984v387.136l-262.592-193.536zM512.256 311.68l422.592 311.488h-845.568z"  horiz-adv-x="1024" />

    
    <glyph glyph-name="youjianxinxiicon" unicode="&#59124;" d="M890.256587 697.669956c-9.406616 4.568039-21.888393 7.721869-38.638555 7.721869L170.276942 705.391824c-16.749139 0-29.229893-3.154853-38.637532-7.721869-38.692793-15.714913-66.18197-54.079686-66.18197-98.996688l0-426.930509c0-44.617174 27.080861-82.818217 65.365338-98.724489 9.326795-4.675486 21.970261-7.995091 39.454164-7.995091l681.34109 0c17.484926 0 30.127369 3.318582 39.454164 7.995091 38.25787 15.906272 65.367385 54.107315 65.367385 98.724489L956.43958 598.674291C956.43958 643.59027 928.948356 681.955042 890.256587 697.669956zM904.015502 598.674291l0-426.930509c0-6.90527-1.38766-13.486152-3.752618-19.549242-3.371932 3.997034-7.206418 8.074909-11.936333 12.290931L670.393311 358.672148l225.03016 243.454778c2.745643 2.963495 4.920258 5.819542 7.095896 8.673543C903.445497 606.911906 904.015502 602.860636 904.015502 598.674291zM851.618031 652.019243c4.81383 0 9.381032-0.870834 13.813153-2.121314-1.277138-2.582825-3.669726-6.360871-8.156085-11.174504L545.751556 301.683203c-18.652566-20.174482-50.95455-20.174482-69.60814 0L164.62192 638.723426c-4.486358 4.813632-6.878946 8.591679-8.157108 11.174504 4.432121 1.251503 9.000347 2.121314 13.813153 2.121314L851.618031 652.019243zM121.633112 152.195563c-2.365981 6.063089-3.752618 12.642948-3.752618 19.549242L117.880494 598.674291c0 4.186346 0.571028 8.238638 1.468505 12.126178 2.201222-2.855024 4.350253-5.710049 7.123526-8.673543l225.029136-243.454778-217.932217-194.186677C128.838506 160.269449 125.005044 156.192597 121.633112 152.195563zM170.276942 118.39883c-2.556324 0-5.029756 0.379647-7.477605 0.760317 1.413244 1.52268 3.099721 3.235694 5.274336 5.194302l219.374115 195.436134 50.547257-54.677297c19.333093-20.909216 45.244267-32.43676 72.952441-32.43676 27.707151 0 53.619348 11.528568 72.952441 32.43676l50.548281 54.677297 219.346484-195.436134c2.201222-1.958608 3.8877-3.671623 5.301967-5.194302-2.473432-0.38067-4.920258-0.760317-7.478628-0.760317L170.276942 118.39883z"  horiz-adv-x="1024" />

    
    <glyph glyph-name="bus" unicode="&#59423;" d="M916.836 136.257h-35.392c-0.414 81.853-67.087 148.108-149.357 148.108s-148.97-66.255-149.412-148.108h-146.485c-0.414 81.853-67.087 148.108-149.357 148.108-82.284 0-148.957-66.255-149.383-148.081-40.9 0.083-74.029 33.127-74.029 73.875v332.63c0 40.83 33.226 73.93 74.209 73.93h473.344c2.954 0.331 5.825 0.8 9.028 0.8h185.522c20.485 0 40.445-7.426 44.751-16.978l76.832-170.69c15.377-4.499 26.834-18.109 26.834-34.895v-221.734c0.001-20.429-16.618-36.966-37.104-36.966zM323.151 505.852c0 20.402-16.606 36.937-37.090 36.937h-111.327c-20.485 0-37.105-16.537-37.105-36.937v-73.93c0-20.401 16.619-36.965 37.105-36.965h111.327c20.484 0 37.090 16.564 37.090 36.965v73.93zM582.896 505.852c0 20.402-16.619 36.937-37.105 36.937h-111.314c-20.484 0-37.105-16.537-37.105-36.937v-73.93c0-20.401 16.62-36.965 37.105-36.965h111.313c20.485 0 37.105 16.564 37.105 36.965v73.93zM820.624 418.725l-38.954 113.131c-2.125 6.211-12.038 11.042-22.196 11.042h-46.878c-10.187 0-18.442-4.831-18.442-11.042v-113.131c0-12.976 12.81-24.129 28.657-24.129h77.466c15.819 0.001 24.791 11.154 20.346 24.129zM286.916 247.125c61.965 0 112.169-50.023 112.169-111.751 0-61.7-50.204-111.723-112.169-111.723-61.951 0-112.182 50.022-112.182 111.723 0 61.728 50.233 111.751 112.182 111.751zM285.702 99.625c20.499 0 37.118 16.564 37.118 36.991 0 20.402-16.619 36.965-37.118 36.965-20.512 0-37.132-16.564-37.132-36.965-0.001-20.427 16.619-36.991 37.132-36.991zM732.17 247.125c61.951 0 112.169-50.023 112.169-111.751 0-61.7-50.218-111.723-112.169-111.723-61.95 0-112.167 50.022-112.167 111.723-0.001 61.728 50.218 111.751 112.167 111.751zM730.955 99.625c20.512 0 37.131 16.564 37.131 36.991 0 20.402-16.619 36.965-37.131 36.965-20.513 0-37.132-16.564-37.132-36.965 0-20.427 16.619-36.991 37.132-36.991z"  horiz-adv-x="1024" />

    
    <glyph glyph-name="gouwu" unicode="&#58885;" d="M742.418599 80.881354c-37.901745 0-68.670753-29.810956-68.670753-67.711148 0-38.029128 30.767985-68.731384 68.670753-68.731384 37.966216 0 68.797648 30.702256 68.797648 68.731384C811.216247 51.070398 780.384815 80.881354 742.418599 80.881354zM368.108555 80.818933c-37.934492 0-66.63122-28.601408-66.63122-66.566068s28.696728-68.795852 66.63122-68.795852c37.966216 0 68.765924 30.831192 68.765924 68.795852S406.075794 80.818933 368.108555 80.818933zM870.841626 689.715797l-610.292076-0.191358-14.333014 34.684964c0 0-14.842641 99.974969-84.659544 99.974969 0 0-79.721889-0.095167-79.721889-98.414427l69.307275 0.096191c0 0 83.735461-528.60519 83.735461-543.510668 0-18.664082 15.129179-67.713194 33.825749-67.713194l604.940989 0c18.66587 0 33.762301 33.123398 33.762301 53.954843 0 18.662035-15.096432 47.581692-33.762301 47.581692L315.237274 216.178807l-13.63202 67.520813 573.821995 2.674922c0 0 65.103361-0.827855 65.103361 64.7497l0.319285 271.103488C940.849895 622.22773 932.121758 689.715797 870.841626 689.715797zM330.588519 350.455c-19.015855 0-34.398824 15.384385-34.398824 34.398438 0 18.98233 15.382969 34.365692 34.398824 34.365692 18.951384 0 34.3671-15.383362 34.3671-34.365692C364.955619 365.839385 349.539903 350.455 330.588519 350.455zM330.588519 451.991534c-19.015855 0-34.398824 15.383362-34.398824 34.365692s15.382969 34.365692 34.398824 34.365692c18.951384 0 34.3671-15.383362 34.3671-34.365692S349.539903 451.991534 330.588519 451.991534zM330.588519 553.496345c-19.015855 0-34.398824 15.383362-34.398824 34.365692s15.382969 34.365692 34.398824 34.365692c18.951384 0 34.3671-15.384385 34.3671-34.365692S349.539903 553.496345 330.588519 553.496345zM432.096467 350.455c-18.983108 0-34.3671 15.384385-34.3671 34.398438 0 18.98233 15.383992 34.365692 34.3671 34.365692 18.983108 0 34.3671-15.383362 34.3671-34.365692C466.46459 365.839385 451.080598 350.455 432.096467 350.455zM432.096467 451.991534c-18.983108 0-34.3671 15.383362-34.3671 34.365692s15.383992 34.365692 34.3671 34.365692c18.983108 0 34.3671-15.383362 34.3671-34.365692S451.080598 451.991534 432.096467 451.991534zM432.096467 553.496345c-18.983108 0-34.3671 15.383362-34.3671 34.365692s15.383992 34.365692 34.3671 34.365692c18.983108 0 34.3671-15.384385 34.3671-34.365692S451.080598 553.496345 432.096467 553.496345zM533.606461 350.455c-18.984131 0-34.3671 15.384385-34.3671 34.398438 0 18.98233 15.383992 34.365692 34.3671 34.365692 18.983108 0 34.366077-15.383362 34.366077-34.365692C567.972537 365.839385 552.588545 350.455 533.606461 350.455zM533.606461 451.991534c-18.984131 0-34.3671 15.383362-34.3671 34.365692s15.383992 34.365692 34.3671 34.365692c18.983108 0 34.366077-15.383362 34.366077-34.365692S552.588545 451.991534 533.606461 451.991534zM533.606461 553.496345c-18.984131 0-34.3671 15.383362-34.3671 34.365692s15.383992 34.365692 34.3671 34.365692c18.983108 0 34.366077-15.384385 34.366077-34.365692S552.588545 553.496345 533.606461 553.496345zM635.145109 350.455c-18.983108 0-34.397801 15.384385-34.397801 34.398438 0 18.98233 15.414693 34.365692 34.397801 34.365692s34.398824-15.383362 34.398824-34.365692C669.544956 365.839385 654.128216 350.455 635.145109 350.455zM635.145109 451.991534c-18.983108 0-34.397801 15.383362-34.397801 34.365692s15.414693 34.365692 34.397801 34.365692 34.398824-15.383362 34.398824-34.365692S654.128216 451.991534 635.145109 451.991534zM635.145109 553.496345c-18.983108 0-34.397801 15.383362-34.397801 34.365692s15.414693 34.365692 34.397801 34.365692 34.398824-15.384385 34.398824-34.365692S654.128216 553.496345 635.145109 553.496345zM736.622356 350.455c-18.91966 0-34.3364 15.384385-34.3364 34.398438 0 18.98233 15.415716 34.365692 34.3364 34.365692 19.045532 0 34.398824-15.383362 34.398824-34.365692C771.022203 365.839385 755.668911 350.455 736.622356 350.455zM736.622356 451.991534c-18.91966 0-34.3364 15.383362-34.3364 34.365692s15.415716 34.365692 34.3364 34.365692c19.045532 0 34.398824-15.383362 34.398824-34.365692S755.668911 451.991534 736.622356 451.991534zM736.622356 553.496345c-18.91966 0-34.3364 15.383362-34.3364 34.365692s15.415716 34.365692 34.3364 34.365692c19.045532 0 34.398824-15.384385 34.398824-34.365692S755.668911 553.496345 736.622356 553.496345zM838.16305 350.455c-18.983108 0-34.3364 15.384385-34.3364 34.398438 0 18.98233 15.353292 34.365692 34.3364 34.365692s34.334353-15.383362 34.334353-34.365692C872.497403 365.839385 857.146158 350.455 838.16305 350.455zM838.16305 451.991534c-18.983108 0-34.3364 15.383362-34.3364 34.365692s15.353292 34.365692 34.3364 34.365692 34.334353-15.383362 34.334353-34.365692S857.146158 451.991534 838.16305 451.991534zM838.16305 553.496345c-18.983108 0-34.3364 15.383362-34.3364 34.365692s15.353292 34.365692 34.3364 34.365692 34.334353-15.384385 34.334353-34.365692S857.146158 553.496345 838.16305 553.496345z"  horiz-adv-x="1024" />

    
    <glyph glyph-name="rili" unicode="&#59066;" d="M384.594 275.53h-125.294v125.286h125.294v-125.286zM573.899 400.816h-125.29v-125.286h125.29v125.286zM763.209 400.816h-125.293v-125.286h125.293v125.286zM384.594 217.892h-125.294v-125.286h125.294v125.286zM573.899 217.892h-125.29v-125.286h125.29v125.286zM763.209 217.892h-125.293v-125.286h125.293v125.286zM809.869 653.748c0-21.346-17.305-38.65-38.649-38.65s-38.653 17.305-38.653 38.65v97.263c0 21.341 17.307 38.646 38.653 38.646s38.649-17.305 38.649-38.646v-97.263zM287.679 751.184c0 21.344-17.307 38.649-38.649 38.649-21.347 0-38.653-17.305-38.653-38.649v-97.262c0-21.346 17.306-38.653 38.653-38.653 21.341 0 38.649 17.307 38.649 38.653v97.262zM856.588 694.752v-39.595c0-47.071-38.295-85.364-85.365-85.364-47.073 0-85.369 38.294-85.369 85.364v39.595h-351.456v-39.418c0-47.072-38.297-85.365-85.365-85.365-47.073 0-85.369 38.294-85.369 85.365v39.418h-92.707v-763.582h876.35v763.582h-90.717zM862.221 16.249h-706.185v473.19h706.185v-473.19z"  horiz-adv-x="1024" />

    
    <glyph glyph-name="jia" unicode="&#58954;" d="M670.203 410.367h-131.836v131.836c0 14.555-11.786 26.367-26.367 26.367-14.555 0-26.367-11.813-26.367-26.367v-131.836h-131.836c-14.555 0-26.367-11.813-26.367-26.367 0-14.581 11.813-26.367 26.367-26.367h131.836v-131.836c0-14.581 11.813-26.367 26.367-26.367 14.581 0 26.367 11.786 26.367 26.367v131.836h131.836c14.581 0 26.367 11.786 26.367 26.367 0 14.555-11.786 26.367-26.367 26.367zM828.406 805.875h-632.813c-58.245 0-105.469-47.224-105.469-105.469v-632.813c0-58.245 47.224-105.469 105.469-105.469h632.813c58.245 0 105.469 47.224 105.469 105.469v632.813c0 58.245-47.224 105.469-105.469 105.469zM881.141 67.594c0-29.109-23.625-52.734-52.734-52.734h-632.813c-29.109 0-52.734 23.625-52.734 52.734v632.813c0 29.109 23.625 52.734 52.734 52.734h632.813c29.109 0 52.734-23.625 52.734-52.734v-632.813z"  horiz-adv-x="1024" />

    
    <glyph glyph-name="weizhengwu" unicode="&#59050;" d="M903.448 547.397c0 0-150.622-16.533-236.707-103.057-91.512-91.973-140.077-181.238-140.077-181.238l-134.161 134.843c0 0 83.615 43.588 172.657 133.080 88.73 89.171 110.199 245.603 110.199 245.603 37.055 37.236 97.127 37.236 134.171 0l93.917-94.388c37.044-37.236 37.044-97.605 0-134.842zM602.914-34.928h-90.87l-420.239 433.78v79.91l102.214 79.905 488.39-502.277-79.493-91.318z"  horiz-adv-x="1024" />

    
    <glyph glyph-name="xinxifabu" unicode="&#59287;" d="M915.652 190.288v517.957c0 0-69.815 59.375-168.85 59.375-99.037 0-168.831-52.783-168.831-52.783v-524.55c0 0 69.793 51.144 168.831 51.144 99.036 0.002 168.85-51.143 168.85-51.143zM434.774 236.839c70.801-12.558 117.209-46.55 117.209-46.55v517.957c0 0-69.813 59.375-168.83 59.375-99.037 0-168.85-52.783-168.85-52.783v-335.625c13.901 3.455 28.436 5.3 43.401 5.3 88.174-0.001 161.53-63.632 177.070-147.673zM188.314 662.055h-25.967v-304.961c8.235 5.172 16.912 9.698 25.967 13.497v291.463zM236.508 363.237c-99.482 0-180.115-81.015-180.115-180.917s80.633-180.916 180.115-180.916 180.136 81.014 180.136 180.916-80.654 180.917-180.136 180.917zM236.508 79.687c-11.468 0-20.77 9.344-20.77 20.87 0 11.529 9.303 20.891 20.77 20.891 11.487 0 20.79-9.362 20.79-20.891 0-11.527-9.303-20.87-20.79-20.87zM257.298 170.146c0-11.528-9.303-20.871-20.79-20.871-11.468 0-20.77 9.344-20.77 20.871v97.415c0 11.528 9.303 20.87 20.77 20.87 11.487 0 20.79-9.343 20.79-20.87v-97.415zM967.606 662.055h-25.988v-501.454h-311.712v-26.372l-129.879-0v26.372h-67.341c-2.203-9.078-5.085-17.887-8.595-26.372h49.968v-26.411h183.453l-1.618 26.411 311.713-0v527.825z"  horiz-adv-x="1024" />

    
    <glyph glyph-name="shezhi_solid" unicode="&#59102;" d="M889.086 470.984h-70.339c-7.021 24.808-16.869 48.356-29.343 70.302l50.676 50.708c22.765 22.764 22.765 59.705 0 82.468l-41.236 41.234c-22.763 22.764-59.706 22.764-82.472 0l-51.595-51.594c-20.618 11.28-42.703 20.106-65.774 26.649v70.303c0 32.067-25.967 58.035-58.003 58.035h-58.037c-32.034 0-58.003-25.967-58.003-58.035v-70.303c-23.923-6.781-46.756-16.153-68.021-28.012l-52.96 52.957c-22.799 22.764-59.706 22.764-82.472 0l-41.27-41.234c-22.765-22.764-22.765-59.705 0-82.468l52.958-52.957c-11.859-21.299-21.197-44.096-27.978-68.053h-70.341c-32.034 0-58.001-25.967-58.001-58.001v-58c0-32.035 25.967-58.035 58.001-58.035h70.341c6.542-23.037 15.334-45.153 26.615-65.771l-51.595-51.559c-22.765-22.798-22.765-59.706 0-82.502l41.27-41.234c22.765-22.764 59.672-22.764 82.472 0l50.676 50.708c21.948-12.473 45.497-22.355 70.305-29.376v-70.336c0-32.035 25.97-58.001 58.003-58.001h58.037c32.036 0 58.003 25.966 58.003 58.001v70.336c23.925 6.781 46.756 16.153 68.057 28.013l49.313-49.345c22.765-22.764 59.708-22.764 82.472 0l41.236 41.234c22.765 22.796 22.765 59.704 0 82.502l-49.313 49.311c11.861 21.299 21.199 44.096 27.98 68.020h70.339c32.036 0 58.037 26 58.037 58.035v58c-0.001 32.033-26.002 58-58.038 58zM511.998 209.948c-96.136 0-174.077 77.901-174.077 174.035 0 96.135 77.94 174.037 174.077 174.037 96.105 0 174.043-77.902 174.043-174.037 0-96.133-77.938-174.035-174.043-174.035z"  horiz-adv-x="1024" />

    
    <glyph glyph-name="zhishi" unicode="&#58991;" d="M802.762-35.972h-516.912v710.725h226.148v-294.788l114.399 86.884 111.751-86.884v294.788h129.229v-646.115c0-35.648-28.963-64.61-64.613-64.61v0l-0.001-0.002zM626.398 509.185l-82.091-64.611v262.484h161.533v-262.484l-79.442 64.611zM188.929 739.364v-32.305c0-17.858 14.449-32.307 32.305-32.307h32.308v-710.725h-32.308c-35.713 0-64.612 28.961-64.612 64.611v710.726c0 35.712 28.898 64.611 64.612 64.611h581.527c23.851 0 44.422-13.062 55.654-32.305h-637.18c-17.858 0-32.306-14.449-32.306-32.304v0 0z"  horiz-adv-x="1024" />

    
    <glyph glyph-name="shangyi" unicode="&#58959;" d="M629.322056 733.079556 252.91729 337.199227l-3.691065-3.8814c-17.499559-18.402115-17.499559-48.226375 0-66.6377l380.095831-399.75252c17.499559-18.411325 45.860491-18.411325 63.332421 0l63.35084 66.62849c17.508769 18.392906 17.508769 48.217165 0 66.61928L470.944955 299.998977l285.060361 299.824623c17.507746 18.392906 17.507746 48.226375-0.001023 66.61928l-63.35084 66.6377C675.182546 751.481671 646.820592 751.481671 629.322056 733.079556z"  horiz-adv-x="1024" />

    
    <glyph glyph-name="new" unicode="&#59172;" d="M286.982 542.529v-368.4h-84.042l-49.788 167.461v-167.461h-80.080v368.4h80.080l53.671-165.908v165.908zM346.17 592.783h173.675v-73.711h-69.517v-69.827h65.011v-70.061h-65.011v-81.012h76.429v-73.711h-180.588v368.322zM944.091 542.529l-42.642-368.4h-119.693c-10.953 56.623-20.661 121.013-28.972 193.171-3.806-30.913-12.738-95.381-26.72-193.171h-118.916l-42.953 368.4h93.13l10.019-128.47 9.865-124.353c3.495 64.313 12.272 148.587 26.563 252.823h99.343c1.398-10.797 4.894-51.264 10.485-121.479l10.642-140.198c5.438 89.168 14.448 176.395 26.72 261.678h93.13zM300.266 543.85v-368.477h-83.964l-49.788 167.539v-167.539h-80.080v368.477h80.080l53.671-165.908v165.908zM359.53 594.103h173.675v-73.711h-69.517v-69.827h65.011v-70.061h-65.011v-81.012h76.429v-73.711h-180.588v368.322zM957.373 543.85l-42.642-368.4h-119.693c-10.953 56.623-20.661 121.013-28.972 193.171-3.806-30.913-12.738-95.381-26.72-193.171h-118.916l-42.875 368.4h93.13l10.019-128.47 9.865-124.353c3.495 64.313 12.272 148.587 26.563 252.823h99.343c1.398-10.797 4.894-51.264 10.485-121.479l10.642-140.198c5.438 89.168 14.448 176.395 26.72 261.678h93.051z"  horiz-adv-x="1024" />

    
    <glyph glyph-name="du" unicode="&#59125;" d="M851.889 680.059c-57.037 0.932-110.609-5.439-160.945-18.635-53.121-13.932-102.862-35.529-149.476-64.175v-487.044c42.55 23.198 86.842 42.55 133.775 56.026 55.040 15.793 113.477 23.468 176.646 19.771v44.72c20.586-0.772 41.401 1.769 60.003 8.931v-86.396h-0.029c-0.004-1.163-0.069-2.338-0.209-3.519-1.942-16.437-16.843-28.191-33.279-26.253-67.691 8.093-129.295 1.574-186.729-14.91-57.535-16.522-111.247-43.109-162.906-75.108l-0.228-0.158-0.234-0.149-0.038-0.030-0.191-0.13-0.413-0.27-0.055-0.038-0.48-0.298-0.080-0.047-0.163-0.102-0.461-0.271-0.018-0.007-0.613-0.346-0.131-0.065-0.246-0.131-0.246-0.14h-0.013l-0.238-0.121-0.252-0.131-0.163-0.074-0.098-0.047-0.256-0.121-0.252-0.121-0.055-0.018-0.205-0.093-0.26-0.112-0.205-0.093-0.055-0.018-0.26-0.112-0.798-0.307-0.246-0.092-0.018-0.010-0.266-0.093-0.41-0.14-0.134-0.047-0.567-0.186-0.246-0.076-0.279-0.083-0.182-0.055-0.093-0.018-0.274-0.074-0.279-0.074-0.065-0.018-0.214-0.055-0.285-0.065-0.223-0.055-0.051-0.010-0.566-0.131-0.113-0.018-0.171-0.037-0.289-0.055-0.274-0.054h-0.010l-0.289-0.047-0.284-0.047-0.158-0.018-0.135-0.030-0.577-0.074-0.038-0.010-0.255-0.029-0.293-0.037-0.205-0.018-0.087-0.010-0.592-0.055h-0.080l-0.214-0.018-0.298-0.018-0.251-0.018h-0.047l-0.293-0.010-0.303-0.018h-0.298l-0.599-0.007-0.601 0.007h-0.303l-0.304 0.018-0.298 0.010h-0.047l-0.251 0.018-0.298 0.018-0.208 0.018h-0.084l-0.588 0.055-0.087 0.010-0.209 0.018-0.293 0.037-0.251 0.029-0.037 0.010-0.293 0.037-0.285 0.037-0.135 0.030-0.159 0.018-0.577 0.093h-0.004l-0.563 0.11-0.171 0.037-0.113 0.018-0.566 0.131-0.051 0.010-0.228 0.055-0.285 0.065-0.279 0.074-0.274 0.074-0.279 0.074-0.093 0.018-0.725 0.222-0.55 0.177-0.13 0.047-0.41 0.14-0.27 0.093-0.018 0.010-0.246 0.092-0.797 0.307-0.256 0.112-0.061 0.018-0.204 0.093-0.256 0.112-0.209 0.093-0.050 0.018-0.256 0.121-0.26 0.121-0.089 0.047-0.163 0.074-0.252 0.131-0.238 0.121h-0.013l-0.252 0.14-0.378 0.195-0.609 0.346-0.022 0.007-0.461 0.271-0.237 0.149-0.541 0.336-0.41 0.27-0.191 0.13-0.037 0.030-0.235 0.149-0.234 0.158c-51.654 32-105.365 58.588-162.901 75.108-57.437 16.484-119.042 23.003-186.729 14.91-16.437-1.938-31.342 9.814-33.283 26.253-0.14 1.183-0.205 2.356-0.209 3.519h-0.022v82.233c19.167-5.057 39.949-5.923 59.999-3.846v-45.642c63.164 3.697 121.603-3.978 176.646-19.771 46.938-13.476 91.223-32.829 133.775-56.026v487.043c-46.615 28.645-96.356 50.243-149.476 64.175-50.336 13.196-103.904 19.568-160.945 18.635v-168.973c-19.538 2.701-40.26 3.91-59.999 2.243v195.553c0 16.569 13.434 30.006 30.002 30.006l0.382-0.010c132.183 7.274 256.789-20.619 370.038-89.87 113.235 69.25 237.863 97.143 370.028 89.87l0.391 0.010c16.569 0 30.002-13.438 30.002-30.006v-197.079c-19.264 2.998-39.988 2.813-60.003 0.819v167.437h-0.004zM805.441 465.191c-1.443-13.094-2.501-26.15-3.181-39.188l25.807-9.183-26.356-3.725c-0.465-13.979-0.502-27.92-0.149-41.833l21.117-8.512-20.735-2.897c0.61-14.761 1.667-29.493 3.139-44.199l18.305-4.050-17.537-3.325c1.15-10.56 2.532-21.113 4.102-31.636 14.528-4.126 74.271-18.683 106.652 10.235 37.046 33.071 55.565 100.532 35.719 157.425-16.689 47.85-115.815 28.311-146.883 20.889v0zM204.583 465.191c-31.068 7.423-130.19 26.961-146.883-20.889-19.841-56.894-1.327-124.355 35.716-157.425 32.386-28.916 92.127-14.359 106.652-10.235 1.572 10.524 2.951 21.075 4.111 31.636l-17.54 3.325 18.303 4.050c1.467 14.705 2.524 29.438 3.139 44.199l-20.735 2.897 21.113 8.512c0.358 13.914 0.321 27.855-0.144 41.833l-26.362 3.725 25.811 9.183c-0.681 13.039-1.738 26.095-3.181 39.188z"  horiz-adv-x="1024" />

    
    <glyph glyph-name="book1" unicode="&#59425;" d="M858.821 562.931v104.019c-295.291 0-340.565-97.215-343.199-103.517-2.633 6.303-47.92 103.517-343.211 103.517v-104.019c-24.035 1.468-49.423 2.294-76.29 2.294v-536.207c0 0 231.956 25.072 347.114-36.001 19.538-10.37 40.533-37.842 72.386-38.005s52.942 27.706 72.538 38.075c115.203 61.004 346.95 35.931 346.95 35.931v536.207c-26.866 0-52.266-0.827-76.29-2.294zM210.557 628.211c226.015-7.072 268.074-76.395 270.078-80.006l8.681-20.773v-462.934c-80.682 46.277-200.651 54.573-275.239 54.573-1.188 0-2.366 0-3.518 0v509.142zM820.665 628.211v-509.153c-1.154 0-2.319 0-3.518 0-75.125 0-196.329-8.425-276.976-55.586v459.73l10.428 25.003c1.981 3.553 43.947 72.933 270.066 80.006z"  horiz-adv-x="1024" />

    
    <glyph glyph-name="xihuan" unicode="&#58900;" d="M512.002 7.262l-58.645 57.356c-217.769 188.391-360.147 315.409-360.147 471.043 0 126.953 100.477 225.281 230.344 225.281 71.159 0 142.376-32.811 188.449-86.032 46.006 53.222 117.285 86.032 188.444 86.032 129.8 0 230.344-98.328 230.344-225.28 0-155.634-142.439-282.653-360.206-471.043l-58.582-57.356z"  horiz-adv-x="1024" />

    
    <glyph glyph-name="guanbi" unicode="&#59290;" d="M598.28 384l285.72 286.020c23.82 23.82 23.82 62.46 0 86.34-23.82 23.82-62.4 23.82-86.28 0l-285.72-286.020-285.78 286.020c-23.82 23.82-62.46 23.82-86.28 0-23.76-23.88-23.76-62.52 0-86.34l285.84-286.020-285.84-286.080c-23.76-23.76-23.76-62.46 0-86.28 11.94-11.94 27.54-17.94 43.2-17.94 15.6 0 31.2 6 43.14 17.94l285.72 286.080 285.78-286.020c11.88-11.94 27.54-17.94 43.14-17.94s31.26 6 43.14 17.94c23.82 23.76 23.82 62.46 0 86.28l-285.78 286.020z"  horiz-adv-x="1024" />

    
    <glyph glyph-name="board" unicode="&#59456;" d="M970.932876 708.319639l0 57.796334L79.51959 766.115973l0-57.796334 55.719023 0c0-46.928822 0-578.219167 0-578.219167l0-44.124963c2.466168-8.819876 8.831132-12.391215 23.300682-13.70207l255.273964 0-111.417579-202.337311 83.911108 0.336668 111.059422 202.000644 55.719023 0 111.110587-202.000644 83.911108-0.336668-111.438045 202.337311 258.241552 0c15.031345 1.401929 19.298532 7.193843 20.321838 27.383674 0.665149 12.96529 0 31.866778 0 59.35176 0 0 0 499.219929 0 549.310767L970.932876 708.319639zM856.168062 130.100472c-3.683902-1.093914-10.836813 0-24.508183 0l-612.837616 0c-13.681604 0-20.834514-1.093914-24.518417 0-5.372358 1.597381-3.346211 7.838525-3.346211 28.9084 0 0-0.409322 512.99363-0.409322 549.58706l669.375284 0c0-58.307987-0.409322-549.58706-0.409322-549.58706C859.514273 137.938997 861.53121 131.69683 856.168062 130.100472zM720.2423 419.204939c0-15.953344-12.484336-28.9084-27.854395-28.9084l-334.26297 0c-15.400758 0-27.864628 12.955056-27.864628 28.9084 0 15.953344 12.463869 28.918633 27.864628 28.918633l334.26297 0C707.757964 448.123572 720.2423 435.158283 720.2423 419.204939zM158.539294 72.273439l-23.300682 0 0 13.70207C137.70478 77.155632 144.070768 73.583271 158.539294 72.273439zM218.822263 130.100472c-13.681604 0-20.834514-1.093914-24.518417 0L218.822263 130.100472zM856.168062 130.100472c-3.683902-1.093914-10.836813 0-24.508183 0L856.168062 130.100472zM915.233296 99.657112l0-27.383674-20.321838 0C909.942803 73.675368 914.20999 79.467281 915.233296 99.657112zM720.2423 592.665573c0-15.953344-12.484336-28.918633-27.854395-28.918633l-334.26297 0c-15.400758 0-27.864628 12.96529-27.864628 28.918633 0 15.97381 12.463869 28.9084 27.864628 28.9084l334.26297 0C707.757964 621.573973 720.2423 608.639382 720.2423 592.665573zM636.668882 245.754538c0-15.984043-12.463869-28.918633-27.864628-28.918633l-250.679319 0c-15.400758 0-27.864628 12.93459-27.864628 28.918633 0 15.953344 12.463869 28.918633 27.864628 28.918633l250.679319 0C624.206036 274.673172 636.668882 261.707882 636.668882 245.754538z"  horiz-adv-x="1024" />

    
    <glyph glyph-name="zuixindongtai" unicode="&#59126;" d="M870.217033 59.811616 870.217033 249.263455c0 28.948309-23.493064 52.370765-52.394301 52.370765-28.90226 0-52.302203-23.422456-52.302203-52.370765l0-112.905466-25.711592 0L739.808938 249.263455c0 28.948309-23.39892 52.370765-52.302203 52.370765-28.809139 0-52.30118-23.422456-52.30118-52.370765l0-112.905466-25.619494 0L609.586061 249.263455c0 13.662161-5.235235 26.088168-13.790074 35.408441 65.753563 50.661843 108.127649 130.177851 108.127649 219.581044 0 152.998603-124.025735 277.047874-277.04685 277.047874-153.022139 0-277.047874-124.049271-277.047874-277.047874 0-135.097908 96.738251-247.632937 224.74567-272.095072l0-179.675172c0-2.034333 0.369414-3.906983 0.600681-5.849218l0-120.766504c0-61.620429 36.718273-111.587448 82.036411-111.587448l331.338361 0c45.226041 0 81.897242 49.967018 81.897242 111.587448L870.447277 52.087701C870.447277 54.678712 870.217033 57.291213 870.217033 59.811616zM175.909917 504.251917c0 138.408303 112.558565 250.965845 250.965845 250.965845 138.338718 0 250.965845-112.558565 250.965845-250.965845 0-84.376713-41.885969-159.181419-105.943914-204.711382-4.64274 1.353834-9.54233 2.092661-14.613836 2.092661-22.861684 0-42.176588-14.564717-49.329499-34.915207-9.326413-3.194762-18.902512-5.845125-28.683273-7.93267L479.271086 375.198679c50.916647 20.708648 86.799902 70.687946 86.799902 129.053238 0 76.904531-62.290695 139.216715-139.194202 139.216715s-139.263787-62.313208-139.263787-139.216715c0-58.405201 35.972283-108.413152 86.962607-129.095193l0-116.395964C261.196349 282.894414 175.909917 383.816964 175.909917 504.251917zM426.968883 540.692874c-28.92682 0-52.394301-23.480784-52.394301-52.394301l0-84.404342c-36.143175 18.916838-60.880579 56.789401-60.880579 100.357685 0 62.452377 50.798966 113.193015 113.181759 113.193015 62.382792 0 113.113197-50.740638 113.113197-113.193015 0-43.525306-24.654516-81.365122-60.718897-100.30038l0 84.347037C479.270063 517.21209 455.778023 540.692874 426.968883 540.692874zM479.270063 136.357989l0 95.816253c8.722662 1.671059 17.300015 3.746324 25.711592 6.213515l0-102.029768L479.270063 136.357989z"  horiz-adv-x="1024" />

    
    <glyph glyph-name="zhuxiao" unicode="&#58993;" d="M815.75 732.75v59.063c0 8.438-5.625 14.063-14.063 14.063h-697.5c-8.438 0-14.063-5.625-14.063-14.063v-697.5c0-8.438 5.625-14.063 14.063-14.063h59.063c8.438 0 14.063 5.625 14.063 14.063v624.375h624.375c8.438 0 14.063 5.625 14.063 14.063zM919.813 690.563h-700.313c-8.438 0-14.063-5.625-14.063-14.063v-697.5c0-8.438 5.625-14.063 14.063-14.063h697.5c8.438 0 14.063 5.625 14.063 14.063v697.5c2.813 5.625-2.813 14.063-11.25 14.063zM703.25 161.812l-236.25 22.5c-16.875 2.813-22.5 14.063-8.438 25.313l56.25 56.25c5.625 5.625 14.063 14.063 22.5 22.5l-120.938 120.938c-11.25 11.25-11.25 33.75 0 45l25.313 25.313c11.25 11.25 33.75 11.25 45 0l120.938-120.938c8.438 8.438 16.875 16.875 22.5 22.5l56.25 56.25c11.25 11.25 22.5 8.438 25.313-8.438l19.688-236.25c2.813-19.688-8.438-30.938-28.125-30.938z"  horiz-adv-x="1024" />

    
    <glyph glyph-name="maifangguihua" unicode="&#59067;" d="M712.790232 727.999663c-85.304589 0-154.456926-69.152337-154.456926-154.456926 0-85.304589 69.152337-154.456926 154.456926-154.456926s154.456926 69.152337 154.456926 154.456926C867.247158 658.847326 798.094821 727.999663 712.790232 727.999663zM774.995537 552.6208l0-22.161516-47.928589 0 0-22.161516 47.928589 0 0-22.161516-47.928589 0 0-18.652968-28.839074 0 0 18.652968-47.642947 0L650.584926 508.303158l47.642947 0 0 22.161516-47.642947 0 0 22.161516 47.642947 0 0 10.051368-67.761853 116.919242 30.542147 0 51.712-93.620547 51.566484 93.620547 30.827789 0-68.047495-116.919242 0-10.051368L774.995537 552.626189zM467.466779 559.244463 314.454232 416.337179 314.454232 552.868716c0 28.170779-22.8352 51.005979-51.005979 51.005979s-51.005979-22.8352-51.005979-51.005979l0-231.801263-72.633937-67.837305 27.7504 0 0-379.462063 206.055747 0L373.614484 53.323789c0 16.534905 12.789221 29.938526 28.564211 29.938526L532.749474 83.262316c15.774989 0 28.564211-13.403621 28.564211-29.938526l0-179.561095 206.055747 0 0 379.462063 27.7504 0L467.466779 559.244463z"  horiz-adv-x="1024" />

    
    <glyph glyph-name="diaochawenjuan" unicode="&#59136;" d="M886.083395 381.387635c-0.460488-0.276293-0.87595-0.436952-1.337461-0.698918-0.215918 3.672646-1.599428 7.30743-4.425799 10.144034l-55.500035 55.292304L824.8201 671.665835 604.483856 671.665835l-80.075757 73.788563c-7.178493 7.192819-22.854521 7.000438-29.831422 0l-78.955236-73.788563L195.285197 671.665835 195.285197 447.270135l-56.637951-56.437383c-4.287653-4.272303-5.379521-10.343579-3.704368-15.731286-0.860601 0.874927-1.845021 1.630127-2.612501 2.597151l0-455.191156c0-38.08541 31.093159-69.071122 69.315692-69.071122l616.812137 0c38.223556 0 69.315692 30.985712 69.315692 69.071122L887.773897 382.617649C887.176286 382.226746 886.714775 381.772398 886.083395 381.387635zM824.8201 401.777011l31.477922-31.369452 0-5.133927-31.477922-31.384801L824.8201 401.777011zM642.029984 107.395354l214.268038 213.521025 0-398.407895c0-8.084119-2.613524-15.538905-6.963599-21.671579L642.029984 107.395354zM509.484202 715.998529l47.783283-44.332694-94.429673 0L509.484202 715.998529zM226.760049 640.195076l566.583153 0L793.343201 302.533706 509.484202 19.673453 226.760049 301.403976 226.760049 640.195076zM377.184013 107.156924 170.461835-98.810055c-4.180206 6.084579-6.653537 13.417591-6.653537 21.317515L163.808298 319.786649 377.184013 107.156924zM195.285197 332.759101l-31.476899 31.369452 0 6.786567c-0.016373 0-0.031722 0-0.031722 0l-1.721201-0.292666 33.229822 32.313963L195.285197 332.759101zM201.647091-115.20956c-0.967024 0-1.890047 0.214894-2.843768 0.277316l200.63453 199.926402 95.138824-94.7909c3.074012-3.074012 7.099698-4.596691 11.126408-4.596691 1.291412 0 2.521426 0.431835 3.781116 0.715291 1.260713-0.283456 2.50403-0.715291 3.795443-0.715291 4.028757 0 8.05342 1.52268 11.128455 4.596691l95.368044 95.021144 200.925149-200.203718c-0.751107-0.046049-1.473561-0.231267-2.242064-0.231267L201.647091-115.210583zM573.006957 545.889223 447.098339 545.889223c-8.683776 0-15.737426 7.021927-15.737426 15.683191 0 8.654101 7.054673 15.684214 15.737426 15.684214l125.908618 0c8.698103 0 15.737426-7.031137 15.737426-15.684214C588.744383 552.91115 581.70506 545.889223 573.006957 545.889223zM683.176103 435.635143 336.929194 435.635143c-8.683776 0-15.737426 7.023974-15.737426 15.669888 0 8.66024 7.054673 15.685237 15.737426 15.685237l346.246909 0c8.697079 0 15.737426-7.023974 15.737426-15.685237C698.913529 442.66014 691.873182 435.635143 683.176103 435.635143zM683.176103 325.343201 336.929194 325.343201c-8.683776 0-15.737426 7.031137-15.737426 15.700587 0 8.644891 7.054673 15.668865 15.737426 15.668865l346.246909 0c8.697079 0 15.737426-7.023974 15.737426-15.668865C698.913529 332.374338 691.873182 325.343201 683.176103 325.343201zM651.698181 215.03591l-283.292088 0c-8.683776 0-15.737426 6.033413-15.737426 14.700817 0 8.661264 7.054673 17.152658 15.737426 17.152658l283.292088 0c8.700149 0 15.738449-7.115048 15.738449-15.937994C667.43663 222.175517 660.39833 215.03591 651.698181 215.03591z"  horiz-adv-x="1024" />

    
    <glyph glyph-name="jianli" unicode="&#58960;" d="M759.443 556.029c0 77.099-35.269 145.947-90.54 191.33l-30.329-144.328-36.595 7.687 33.557 159.674c-36.367 21.003-78.529 33.083-123.539 33.083-46.173 0-89.368-12.682-126.361-34.701l33.213-158.056-36.595-7.687-29.846 142.037c-53.713-45.383-87.856-113.205-87.856-189.037h-45.453v-60.607h585.79v60.607h-45.445zM644.795 277.24c-55.572-84.244-99.132-216.412-99.132-216.412l-9.593 180.388h-48.144l-9.593-180.388c0 0-43.56 132.169-99.123 216.412-241.577-30.459-286.946-158.889-286.946-312.745h839.468c0 153.856-45.369 282.286-286.936 312.745zM691.878 535.016c2.81-12.773 4.393-25.988 4.393-39.594 0-101.599-82.665-184.264-184.275-184.264s-184.281 82.665-184.281 184.264c0 13.607 1.582 26.822 4.397 39.594h-52.307c-2.18-12.983-3.528-26.168-3.528-39.594 0-62.97 24.521-122.15 69.039-166.678 44.524-44.518 103.714-69.039 166.678-69.039 62.964 0 122.154 24.522 166.678 69.039 44.519 44.528 69.038 103.709 69.038 166.678 0 13.426-1.345 26.61-3.528 39.594h-52.308zM549.411 172.144h-74.829l-14.391 72.431h103.61z"  horiz-adv-x="1024" />

    
    <glyph glyph-name="lvyoutese" unicode="&#59288;" d="M893.296 623.778c-55.336-21.237-28.262-42.393-28.262-42.393s23.418-9.287 42.393-70.654c13.385-43.289-5.658-115.875-14.131-127.178s-16.96 124.348-56.524 141.308c-39.563 16.96-5.657 0-14.13-42.392-8.473-42.393-5.658-87.614-56.524-127.178-50.865-39.563 22.604 64.996 0 127.178-22.603 62.181-90.442-5.658-98.916-127.178-5.036-72.172-9.067-118.262-11.509-143.93l152.817-152.817h-466.317l211.962 254.354 21.362-21.362c14.213 40.972 46.035 130.545 63.423 162.67 23.818 44.007 42.393 56.524 42.393 56.524s46.435 45.221-28.262 42.393c-70.654-2.677-141.308-56.524-141.308-56.524s35.382 99.647 98.916 113.047c53.018 11.178 70.654 0 70.654 0s-46.587 65.369-98.916 42.392c-92.858-40.778 33.504 60.566 84.785 42.393 61.96-21.955 70.654-56.524 70.654-56.524s2.829 115.876-14.13 127.177c-16.96 11.302 78.727-36.334 84.785-98.916 2.719-28.124 55.244 33.495 155.439 0 46.222-15.452 43.454 1.408-70.654-42.393zM492.638 537.876c-25.709 11.854-49.762-19.195-49.762-19.195s8.928 5.175 35.148-0.966c31.407-7.369 47.678-56.151 47.678-56.151s-34.416 27.075-69.522 29.324c-37.107 2.401-14.628-20.161-14.628-20.161s3.919-9.908 20.327-27.972c18.864-20.754 32.678-118.263 32.678-118.263l-43.303-54.067c0 0-2.167 65.755-4.747 124.777-2.595 59.020-35.423 92.815-47.498 62.994-12.074-29.835 23.073-81.514-1.698-61.642-24.77 19.871-22.755 41.743-26.412 62.416-3.643 20.658 13.441 28.414-6.458 20.741-19.899-7.687-25.943-73.317-30-67.729-4.071 5.603-17.746 40.709-12.351 62.030 7.217 28.593 36.086 33.284 36.086 33.284s18.74 8.763-20.52 21.127c-57.89 18.216-64.665 17.043-34.568 21.514 51.955 7.715 75.566-15.731 77.305-2.125 3.849 30.248 52.080 52.038 43.496 46.78-8.597-5.244-8.735-61.449-8.735-61.449s4.788 16.643 35.893 26.44c25.749 8.099 87.241-42.739 41.591-21.708zM426.979 228.115l-155.438-169.569h-211.962l240.224 409.793 127.177-240.224z"  horiz-adv-x="1024" />

    
    <glyph glyph-name="weibo_solid" unicode="&#58994;" d="M471.451 385.751c-88.793-4.1-160.599-51.672-160.599-111.015 0-59.273 71.805-103.802 160.599-99.652 88.889 4.036 160.824 59.664 160.824 118.926-0.001 59.21-71.934 95.826-160.824 91.741zM531.975 236.499c-27.198-35.11-81.011-52.256-133.286-23.955-24.863 13.502-23.94 40.001-23.94 40.001s-10.343 83.673 79 94.111c89.442 10.39 105.423-75.049 78.226-110.158zM429.729 281.026c-16.695-1.737-28.625-16.291-28.625-30.181 0-13.956 13.421-23.567 30.116-21.608 16.597 1.884 30.117 14.718 30.117 28.628-0 13.937-12.449 24.992-31.608 23.162zM472.050 292.517c-5.722-4.151-6.89-12.060-3.777-17.001 2.983-5.078 9.953-5.661 15.592-1.431 5.513 4.364 7.653 11.949 4.67 17.007-2.983 4.942-9.854 6.353-16.485 1.424zM512.245 829.018c-246.678 0-446.651-199.972-446.651-446.651s199.972-446.651 446.651-446.651 446.651 199.972 446.651 446.651-199.972 446.651-446.651 446.651zM711.664 254.686c-36.629-77.771-157.355-115.636-246.828-108.616-85.032 6.694-194.362 34.931-205.659 137.825 0 0-5.964 46.617 39.226 106.915 0 0 64.965 90.754 140.661 116.656 75.76 25.756 84.578-17.847 84.578-43.618-4.018-21.883-11.541-34.737 16.89-25.901 0 0 74.464 34.523 105.1 3.889 24.736-24.733 4.085-58.756 4.085-58.756s-10.243-11.362 10.862-15.448c21.165-4.215 87.686-35.044 51.084-112.945zM638.241 469.554c-8.107 0-14.623 6.548-14.623 14.605 0 8.184 6.516 14.732 14.623 14.732 0 0 91.27 16.893 80.362-81.205 0-0.583-0.064-1.038-0.194-1.556-1.038-6.936-7.149-12.269-14.345-12.269-8.119 0-14.735 6.5-14.735 14.604 0-0.001 14.459 65.563-51.089 51.092zM792.549 391.1h-0.131c-2.4-16.596-10.648-17.927-20.456-17.927-11.735 0-21.233 7.393-21.233 19.129 0 10.179 4.212 20.518 4.212 20.518 1.25 4.28 11.186 30.928-6.547 70.704-32.451 54.526-97.835 55.336-105.553 52.222-7.779-3.045-19.285-4.601-19.285-4.601-11.804 0-21.284 9.628-21.284 21.299 0 9.821 6.566 18.122 15.512 20.648 0 0 0.191 0.324 0.519 0.39 0.648 0.13 1.298 0.796 2.011 0.861 9.092 1.733 41.559 8.119 73.102 0.729 56.472-13.195 133.984-67.786 99.133-183.972z"  horiz-adv-x="1024" />

    
    <glyph glyph-name="sousuo" unicode="&#58955;" d="M947.889-23.708l-213.202 213.202c27.11 30.709 48.908 65.293 64.91 103.124 19.797 46.805 29.835 96.51 29.835 147.733s-10.038 100.929-29.835 147.733c-19.116 45.196-46.477 85.78-81.324 120.626s-75.432 62.208-120.626 81.324c-46.805 19.797-96.509 29.835-147.733 29.835-51.224 0-100.929-10.038-147.733-29.835-45.195-19.116-85.78-46.478-120.626-81.324-34.847-34.847-62.208-75.43-81.324-120.626-19.797-46.804-29.835-96.509-29.835-147.733s10.038-100.928 29.835-147.733c19.116-45.195 46.478-85.78 81.324-120.626 34.847-34.847 75.432-62.209 120.626-81.325 46.805-19.797 96.51-29.835 147.733-29.835 51.224 0 100.929 10.038 147.734 29.835 37.83 16.001 72.414 37.8 103.123 64.91l213.202-213.202c4.684-4.684 10.821-7.025 16.959-7.025s12.276 2.341 16.959 7.025c9.364 9.368 9.364 24.552-0.002 33.918zM449.913 108.8c-88.56 0-171.82 34.488-234.442 97.11-62.621 62.62-97.109 145.881-97.109 234.442 0 88.56 34.488 171.82 97.109 234.442 62.621 62.621 145.882 97.109 234.442 97.109s171.82-34.488 234.442-97.109c62.621-62.621 97.109-145.882 97.109-234.442 0-86.851-33.188-168.591-93.532-230.778-1.421-0.913-2.768-1.986-4.011-3.229-1.242-1.242-2.315-2.59-3.228-4.010-62.19-60.346-143.93-93.534-230.779-93.534z"  horiz-adv-x="1024" />

    
    <glyph glyph-name="chenggong" unicode="&#58956;" d="M511.911 767.64000001c-245.861 0-445.877-200.013-445.877-445.88 0-245.859 200.015-445.899 445.877-445.899 245.903 0 445.913 200.039 445.913 445.899 0 245.866-200.01 445.88-445.913 445.88v0zM788.882 445.92900001l-332.822-332.813c-7.99-7.994-20.947-7.994-28.935 0l-43.658 43.661c-0.005 0-0.005 0.002-0.009 0.007l-144.444 144.443c-8.009 7.995-8.009 20.947 0 28.941l43.644 43.658c7.99 7.994 20.946 7.994 28.936 0l129.998-129.993 274.687 274.694c8.015 7.984 20.951 7.984 28.96 0l43.644-43.658c7.985-7.981 7.985-20.946 0-28.941v0zM788.882 445.92900001z"  horiz-adv-x="1024" />

    
    <glyph glyph-name="lianjie" unicode="&#59311;" d="M601.938 472.259c-5.794 5.792-11.969 11.013-18.332 15.853l-0.011-0.010c-6.549 6.299-15.443 10.178-25.247 10.178-20.123 0-36.435-16.313-36.435-36.435 0-8.903 3.199-17.059 8.505-23.388h-0.001c0.001-0.001 0.003-0.003 0.005-0.004 2.549-3.040 5.582-5.662 8.986-7.736 3.435-2.833 6.807-5.623 9.961-8.776l3.004-3.005c37.762-37.715 26.489-102.694-11.273-140.456l-161.138-161.090c-37.761-37.715-99.152-37.715-136.914 0l-3.028 3.030c-37.763 37.761-37.763 99.197 0 136.867l71.189 71.166c9.134 7.25 14.997 18.44 14.997 31.005 0 21.856-17.717 39.573-39.573 39.573-8.247 0-15.903-2.525-22.242-6.841-0.020 0.042-0.041 0.082-0.063 0.126l-0.758-0.71c-2.802-2.015-5.336-4.377-7.524-7.041l-73.981-69.227c-69.542-69.591-69.542-183.406 0-252.899l3.004-3.003c69.542-69.494 183.308-69.494 252.851 0l161.090 161.138c69.446 69.538 75.335 179.235 5.889 248.73l-2.959 2.956zM834.144 708.559l-3.004 3.004c-69.541 69.542-183.307 69.542-252.85 0l-161.090-161.138c-69.542-69.542-73.372-169.965-3.83-239.553l2.956-2.911c3.158-3.157 6.436-6.134 9.783-8.989 2.422-2.706 5.268-5.021 8.431-6.852 0.024-0.019 0.049-0.039 0.073-0.058l0.010 0.009c5.041-2.899 10.882-4.567 17.117-4.567 18.997 0 34.397 15.401 34.397 34.397 0 5.362-1.228 10.437-3.417 14.961v0c-4.547 10.21-13.059 16.426-18.947 22.314l-2.957 2.909c-37.761 37.761-23.422 92.621 14.339 130.382l161.185 161.092c37.668 37.762 99.080 37.762 136.842 0l3.006-2.956c37.762-37.763 37.762-99.224 0-136.939l-70.957-71.004c-9.653-7.152-15.913-18.623-15.913-31.559 0-21.679 17.574-39.254 39.254-39.254 7.545 0 14.59 2.134 20.573 5.823 0.045-0.077 0.087-0.148 0.132-0.225l1.101 1.016c3.39 2.27 6.402 5.057 8.933 8.242l74.782 69.003c69.593 69.541 69.593 183.309 0.051 252.851z"  horiz-adv-x="1024" />

    
    <glyph glyph-name="dianhua" unicode="&#58961;" d="M835.034 117.981c-2.491 4.626-60.728 113.688-98.92 159.412-16.902 20.223-35.524 40.031-60.313 40.031-21.232 0-39.853-14.411-61.262-31.135-22.239-17.258-35.108-19.096-39.853-21.528-1.127 1.245-107.876 126.498-135.986 182.66-17.732 35.465-4.982 48.393 51.536 77.808 51.595 26.865 50.884 64.761 41.573 83.917-3.736 5.634-92.516 139.485-136.223 183.193-12.336 12.277-28.111 18.859-45.724 18.859-49.639 0-100.819-52.189-106.156-57.763-35.405-35.405-86.051-167.24-42.64-311.351 43.471-144.289 134.681-277.311 278.852-406.655 49.816-44.716 103.843-67.43 160.598-67.43 89.669 0 158.226 57.526 177.084 75.080 32.915 30.779 25.086 63.694 17.436 74.903zM364.153 760.907c40.149-40.090 127.921-172.162 128.514-172.162 0.949-3.736-2.609-13.463-22.951-24.019-13.7-7.236-29.415-15.716-43.648-26.153l-136.639 196.656c17.91 15.301 42.521 31.491 60.432 31.491 5.872 0 10.26-1.779 14.292-5.812zM509.628 68.462c-137.884 123.77-224.885 250.267-265.983 386.491-35.049 116.297-0.237 221.978 24.968 258.214l135.334-194.698c-17.851-21.587-25.323-50.409-5.041-90.974 30.542-61.025 137.469-186.396 143.281-192.979 2.787-2.846 13.343-11.801 32.974-11.801 5.456 0 11.15 0.89 16.961 2.313l129.759-193.157c-23.188-10.913-50.706-19.393-81.367-19.393-45.487 0-89.491 18.8-130.886 55.984zM787.294 75.578c-6.523-6.109-20.342-17.851-39.142-29.534l-128.217 190.606c7.176 4.033 14.47 8.659 22.002 14.529 11.090 8.659 27.933 21.765 33.863 21.765 1.838 0 8.065-2.372 26.094-24.019 35.167-42.225 93.287-150.813 94.947-153.778 0.178 0 3.203-7.65-9.548-19.57z"  horiz-adv-x="1024" />

    
    <glyph glyph-name="minzheng" unicode="&#59405;" d="M873.808838 642.242711c85.274152-89.63753 137.749294-210.910571 137.749294-343.856465 0-132.927475-52.475142-254.06237-137.749294-343.855442l0 70.555939c57.723679 76.231195 91.977831 170.982186 91.977831 273.299503 0 102.471836-34.254152 197.22385-91.977831 273.454022L873.808838 642.242711 873.808838 642.242711zM873.808838 66.038434c12.685927 11.811 25.51307 24.351618 38.33919 38.053688 5.533017 72.154343-7.578606 144.151098 4.223185 216.165248-17.638729 1.301645-31.773657-5.099135-42.562375-18.506493L873.808838 66.038434 873.808838 66.038434zM873.808838 386.132706l52.916187 9.191336-2.920516 17.778922-49.994648-8.602935L873.809861 386.132706 873.808838 386.132706zM873.808838 445.033187l38.192857 14.724353-6.417153 16.895809-31.775704-12.245905L873.808838 445.033187 873.808838 445.033187zM873.808838 514.272131l3.790326 2.030239-3.790326 6.711865L873.808838 514.272131zM807.343053 700.98765c23.901363-17.638729 46.206368-37.169551 66.465784-58.744939l0-70.402443c-19.530822 25.808806-41.835827 49.569976-66.465784 70.695109L807.343053 700.98765 807.343053 700.98765zM873.808838-45.470219c-20.259416-21.420869-42.564421-41.10621-66.465784-58.59042l0 58.296731c24.629957 21.281699 46.934962 44.903699 66.465784 70.849628L873.808838-45.470219 873.808838-45.470219zM873.808838 523.014236l0-8.742105-66.465784-37.169551 0 20.98801 61.512982 33.961486L873.808838 523.014236 873.808838 523.014236zM873.808838 464.408467l0-19.37528-62.386886-24.197098-4.078899 7.42511 0 10.648524L873.808838 464.408467 873.808838 464.408467zM873.808838 404.501052l0-18.367323-47.368844-8.308223-5.393847 17.639752L873.808838 404.501052 873.808838 404.501052zM873.808838 301.749854c-23.61586-29.449729-30.900777-92.27152-24.048719-181.040263-14.7264-0.157589-28.861328-0.729617-42.417065-1.612731l0-111.803365c20.259416 17.500583 42.849924 36.5965 66.465784 58.744939L873.808838 301.749854 873.808838 301.749854zM807.343053 544.436128l35.124985 25.51307-10.495028 14.569834-24.629957-17.777899L807.343053 544.436128zM749.031996 738.157201c20.413935-11.066033 39.799448-23.467481 58.311057-37.169551l0-58.452273c-18.219967 15.749706-37.756929 30.024827-58.311057 42.719964L749.031996 738.157201 749.031996 738.157201zM807.343053-104.060639c-18.512632-13.70207-37.897122-26.102495-58.311057-37.185924l0 52.919257c20.554128 12.678764 40.092114 26.968212 58.311057 42.563398L807.343053-104.060639 807.343053-104.060639zM807.343053 566.741134l0-22.305005-52.040237-37.897122-6.27082 6.41613L749.031996 524.611617 807.343053 566.741134 807.343053 566.741134zM807.343053 498.090591l0-20.98801-24.055882-13.422707-11.073196 14.879895L807.343053 498.090591 807.343053 498.090591zM807.343053 438.910747l0-10.648524-4.811586 8.742105L807.343053 438.910747 807.343053 438.910747zM807.343053 119.09686c-20.700461-1.302669-40.083927-3.643993-58.311057-6.696516l0-163.402557c14.431687 19.095917 34.697243 37.60241 58.311057 58.295708L807.343053 119.09686 807.343053 119.09686zM749.031996 577.235139 749.031996 602.608016l33.528628 32.348756 12.393261-12.973476L749.031996 577.235139zM743.352647 741.070554c1.890047-1.006933 3.787256-1.89107 5.679349-2.914376l0-52.901861c-1.892093 1.161453-3.789303 2.324952-5.679349 3.487428L743.352647 741.070554 743.352647 741.070554zM749.031996-141.24554c-1.892093-1.006933-3.789303-2.028193-5.679349-3.052522l0 52.485375c1.890047 1.160429 3.787256 2.323928 5.679349 3.486404L749.031996-141.24554 749.031996-141.24554zM749.031996 602.608016l0-25.372877-5.679349-5.53404 0 25.357528L749.031996 602.608016 749.031996 602.608016zM749.031996 524.611617l0-11.656481-5.679349 5.984295 0 1.596358L749.031996 524.611617 749.031996 524.611617zM749.031996 112.400345l0-163.402557c-2.036379-2.636037-3.928472-5.255701-5.679349-8.029884L743.352647 111.376015C745.242693 111.670727 747.139903 111.95009 749.031996 112.400345L749.031996 112.400345zM743.352647 663.818099l0 1.7519 0.873903-0.728594L743.352647 663.818099zM723.673445 750.991508c6.704702-3.208065 13.261025-6.417153 19.678178-9.920954l0-52.327786c-6.417153 3.796466-12.974499 7.579629-19.678178 11.082406L723.673445 750.991508 723.673445 750.991508zM743.352647-144.299085c-6.417153-3.347235-12.974499-6.711865-19.678178-9.764388l0 51.16531c6.704702 3.487428 13.261025 7.145747 19.678178 11.084453L743.352647-144.299085 743.352647-144.299085zM743.352647 665.57l0-1.7519-19.678178-25.219381 0 29.312606 6.557346 8.151657L743.352647 665.57 743.352647 665.57zM743.352647 597.058626l0-25.357528-19.678178-19.23611 0 25.497721L743.352647 597.058626 743.352647 597.058626zM743.352647 520.534765l0-1.596358-0.87595 1.007957L743.352647 520.534765 743.352647 520.534765zM743.352647 111.376015l0-170.407088c-6.417153-9.764388-11.222599-19.669992-14.144138-30.16502l-5.53404 0L723.674469 107.284837C730.082412 108.757375 736.648968 110.05902 743.352647 111.376015zM702.974008 760.167494c6.997368-2.915399 13.848403-5.967922 20.700461-9.175987l0-51.166333c-6.704702 3.64297-13.703093 7.006578-20.700461 10.353812L702.974008 760.167494 702.974008 760.167494zM723.673445-154.063473c-6.851035-3.209088-13.703093-6.261611-20.700461-9.175987l0 49.987484c6.997368 3.209088 13.995759 6.711865 20.700461 10.353812L723.673445-154.063473 723.673445-154.063473zM723.673445 667.911324l0-29.312606-20.700461-26.380834 0 29.450752L723.673445 667.911324 723.673445 667.911324zM723.673445 577.962709l0-25.497721-5.975085-5.844102-14.57802 11.516288L723.673445 577.962709 723.673445 577.962709zM723.673445 107.284837l0-196.48093L702.974008-89.196093 702.974008 101.905316C709.676663 103.935556 716.527698 105.688479 723.673445 107.284837L723.673445 107.284837zM702.974008 127.26489 702.974008 514.272131c8.889461-8.601912 15.600303-19.095917 19.528775-31.931247L722.502783 131.201549C716.093816 130.03805 709.53033 128.722078 702.974008 127.26489zM511.438717 798.359328c67.781756 0 132.502803-13.546527 191.535291-38.191834l0-49.989531C644.80826 737.428607 579.800687 752.587865 511.438717 752.587865L511.438717 798.359328 511.438717 798.359328zM702.974008-163.23946c-59.032488-24.64633-123.753535-38.3484-191.535291-38.3484L511.438717-155.815373c68.361971 0 133.369543 15.313777 191.535291 42.563398L702.974008-163.23946 702.974008-163.23946zM702.974008 641.668637l0-29.450752-25.219381-32.209586-16.035208 9.331529L702.974008 641.668637 702.974008 641.668637zM702.974008 514.272131l0-387.007241c-28.420283-6.417153-57.576323-16.770965-80.902588-39.789215L622.07142 419.226428c0 34.983769-36.147268 35.138288-36.147268-3.487428l0-336.587921-74.485435 0L511.438717 492.401008C528.347828 543.413845 650.939911 564.555351 702.974008 514.272131L702.974008 514.272131zM702.974008 101.905316c-106.697067-30.612205-160.047136-97.233532-173.314301-191.101409L702.974008-89.196093 702.974008 101.905316 702.974008 101.905316zM511.438717 553.039064c45.918819 0 83.234703 37.32407 83.234703 83.235726 0 45.771463-37.315884 83.080184-83.234703 83.080184L511.438717 553.039064zM511.438717-201.586836c-67.922972 0-132.937708 13.857613-192.264908 38.781258l0 49.988508c58.45125-27.544333 123.753535-42.998303 192.264908-42.998303L511.438717-201.586836 511.438717-201.586836zM319.173808 759.733613c59.3272 24.923646 124.341936 38.626739 192.264908 38.626739l0-45.771463c-68.511373 0-133.813658-15.454994-192.264908-42.842761L319.173808 759.733613 319.173808 759.733613zM511.438717 719.354973c-45.626153 0-82.942037-37.308721-82.942037-83.080184 0-45.911656 37.315884-83.235726 82.942037-83.235726L511.438717 719.354973 511.438717 719.354973zM511.438717 492.401008l0-413.250952 0 0-74.191746 0L437.246971 415.737978c0 38.625716-36.154431 38.471197-36.154431 3.487428L401.092539 87.475675c-23.614837 23.309892-53.204759 33.664727-81.918731 39.928385L319.173808 513.248825C370.62769 564.850064 494.675938 543.862054 511.438717 492.401008L511.438717 492.401008 511.438717 492.401008zM319.173808-89.196093l174.337607 0c-13.268188 94.163613-66.905806 160.923086-174.337607 191.380772L319.173808-89.196093 319.173808-89.196093zM319.173808 612.217884l0 29.450752 41.254589-52.328809-16.035208-9.331529L319.173808 612.217884zM319.173808-162.805578c-6.998391 2.914376-13.988596 5.967922-20.700461 9.17701l0 51.166333c6.712889-3.64297 13.703093-6.991228 20.700461-10.354835L319.173808-162.805578 319.173808-162.805578zM298.473347 750.402083c6.712889 3.362584 13.703093 6.417153 20.700461 9.331529l0-49.987484c-6.998391-3.363607-13.988596-6.851035-20.700461-10.509355L298.473347 750.402083 298.473347 750.402083zM319.173808 641.668637l0-29.450752-20.700461 26.380834 0 29.312606L319.173808 641.668637 319.173808 641.668637zM319.173808 513.248825l0-385.845789c-6.269797 1.458211-12.532431 2.63399-18.506493 3.797489L300.667316 482.341908C304.456618 494.742333 310.866608 504.941626 319.173808 513.248825L319.173808 513.248825zM319.173808 102.184679l0-191.380772-20.700461 0L298.473347 107.578526C305.471738 105.982168 312.470129 104.092122 319.173808 102.184679L319.173808 102.184679zM298.473347 552.464989l0 25.497721 20.553105-19.824511-14.569834-11.516288L298.473347 552.464989zM298.473347-153.628568c-6.703679 3.207042-13.260002 6.417153-19.677155 9.918907l0 52.466955c6.417153-3.936659 12.974499-7.579629 19.677155-11.220552L298.473347-153.628568 298.473347-153.628568zM278.795169 740.637696c6.417153 3.362584 12.974499 6.710842 19.677155 9.764388l0-51.16531c-6.703679-3.487428-13.260002-7.28594-19.677155-11.066033L278.795169 740.637696 278.795169 740.637696zM298.473347 667.911324l0-29.312606-19.677155 25.219381 0 1.7519 13.120832 10.492982L298.473347 667.911324 298.473347 667.911324zM298.473347 577.962709l0-25.497721-19.677155 19.23611 0 25.357528L298.473347 577.962709 298.473347 577.962709zM298.473347 107.578526l0-196.774619-4.517897 0c-3.061732 10.929934-8.309246 21.420869-15.160281 31.622208L278.795169 111.516208C285.499871 110.353732 292.06438 109.035714 298.473347 107.578526L298.473347 107.578526zM278.795169 518.938408l0 1.596358 0.876973-0.588401L278.795169 518.938408zM278.795169-143.709661c-1.890047 1.006933-3.789303 2.030239-5.680373 3.053546l0 52.918233c1.89107-1.163499 3.790326-2.341325 5.680373-3.504824L278.795169-143.709661 278.795169-143.709661zM273.114796 737.583127c1.89107 1.02433 3.790326 2.032286 5.680373 3.054569l0-52.467979c-1.890047-1.163499-3.789303-2.342348-5.680373-3.5038L273.114796 737.583127 273.114796 737.583127zM278.795169 665.57l0-1.7519-0.867764 1.023306L278.795169 665.57 278.795169 665.57zM278.795169 597.058626l0-25.357528-5.680373 5.53404L273.114796 602.608016 278.795169 597.058626 278.795169 597.058626zM278.795169 520.534765l0-1.596358-5.680373-5.984295L273.114796 524.611617 278.795169 520.534765 278.795169 520.534765zM278.795169 111.516208l0-169.090093c-1.890047 2.632967-3.789303 5.252631-5.680373 7.873318L273.114796 112.540538C275.005866 112.244802 276.905122 111.811944 278.795169 111.516208zM273.114796-140.655092c-20.405749 11.082406-39.796378 23.623024-58.303894 37.325094l0 58.45125c18.219967-15.748682 37.603433-30.179346 58.303894-42.85811L273.114796-140.655092 273.114796-140.655092zM214.810902 700.259056c18.507516 13.70207 37.898145 26.242687 58.303894 37.32407l0-52.91721c-20.700461-12.834306-40.082904-27.109428-58.303894-42.85811L214.810902 700.259056 214.810902 700.259056zM273.114796 602.608016l0-25.372877-46.066175 44.748157 12.539594 12.973476L273.114796 602.608016 273.114796 602.608016zM273.114796 524.611617l0-11.656481-6.268774-6.41613-52.034097 37.897122L214.811926 566.741134 273.114796 524.611617 273.114796 524.611617zM273.114796 112.540538c-18.219967 3.051499-37.610596 5.252631-58.303894 6.709819l0-111.073748c23.467481-20.554128 43.725874-39.076994 58.303894-57.877175L273.114796 112.540538 273.114796 112.540538zM214.810902 428.262222l0 10.648524 4.805446-1.906419L214.810902 428.262222 214.810902 428.262222zM214.810902 477.10258l0 20.98801 35.123962-19.529799-11.221576-14.879895L214.810902 477.10258zM214.810902-103.331022c-23.908526 17.623379-46.214555 37.44789-66.620303 59.023278l0 70.696132c19.677155-26.085098 41.98216-49.987484 66.620303-71.26816L214.810902-103.331022 214.810902-103.331022zM148.191622 641.234755c20.405749 21.561062 42.711777 41.385573 66.620303 59.024302l0-58.45125c-24.63712-21.420869-46.942125-45.322232-66.620303-71.269183L148.191622 641.234755 148.191622 641.234755zM214.810902 566.741134l-24.63712 17.777899-10.641361-14.569834 35.278481-25.51307L214.810902 566.741134 214.810902 566.741134zM214.810902 498.090591l0-20.98801-66.620303 37.169551 0 8.742105 5.107321 9.036817L214.810902 498.090591 214.810902 498.090591zM214.810902 438.910747l0-10.648524-4.084015-7.42511-62.535265 24.197098 0 19.37528L214.810902 438.910747 214.810902 438.910747zM214.810902 119.250356c-13.268188 0.868787-27.117614 1.300622-41.548278 1.459235 7.145747 89.930195-0.582261 153.342434-25.072025 182.202739l0-235.989759c23.614837-22.011316 46.353724-41.261753 66.620303-58.745962L214.810902 119.250356 214.810902 119.250356zM148.191622 386.132706l0 18.367323 52.918233-9.035794-5.39487-17.639752L148.191622 386.132706zM148.191622-44.307743C63.646064 45.345136 11.611967 166.029776 11.611967 298.386246c0 132.512013 52.034097 253.195629 136.579655 342.848509l0-70.696132c-56.994062-75.950809-90.807169-170.253592-90.807169-272.152377 0-101.743242 33.813107-196.046025 90.807169-271.997857L148.191622-44.307743 148.191622-44.307743zM148.191622 523.014236l-3.641947-6.711865 3.641947-2.030239L148.191622 523.014236 148.191622 523.014236zM148.191622 464.408467l-31.628348 12.245905-6.556323-16.895809 38.184671-14.724353L148.191622 464.408467 148.191622 464.408467zM148.191622 404.501052l-49.848315 8.602935-2.914376-17.778922 52.762691-9.191336L148.191622 404.501052 148.191622 404.501052zM148.191622 302.912329c-10.492982 12.524245-24.343431 18.506493-41.393759 17.344017 11.803837-72.01415-1.318018-144.010905 4.224208-216.165248 12.539594-13.268188 24.923646-25.667589 37.169551-37.168528L148.191622 302.912329z"  horiz-adv-x="1024" />

    
    <glyph glyph-name="shouc01" unicode="&#59506;" d="M954.742125 382.731236l-316.211848 45.952588L497.114476 715.222863 339.211167 409.6227c8.023744-8.023744 16.047488-16.067954 24.077372-24.090675l133.824915 256.82018 119.994931-243.147786 268.336468-38.980803-194.162118-189.272761 45.826721-267.25688L497.114476 29.874793 257.106194-96.305001l45.832861 267.25688L108.770797 360.223616l148.196227 19.500123c-9.473769 9.493212-18.968004 18.974144-28.455075 28.461215L39.473525 382.731236l228.823546-223.050052-54.022381-314.932716 282.839787 148.700717L779.9471-155.251531l-54.027497 314.932716L954.742125 382.731236z"  horiz-adv-x="1024" />

    
    <glyph glyph-name="qichedaogou" unicode="&#59080;" d="M558.158 556.321l-44.227 6.822c-23.774 3.673-38.382-7.246-46.516-21.414l-43.164-74.272c-12.52 0.35-36.427-10.569-40.582-37.566l-15.54-100.568 34.826-5.364-3.864-25.043c-6.108-39.548 41.095-46.37 47.129-7.26l3.85 25.044 212.929-32.857-3.877-25.043c-6.034-39.097 41.021-46.822 47.129-7.274l3.862 25.043 34.812-5.378 15.508 100.568c4.184 27.011-15.35 44.62-27.36 48.061l-18.745 83.819c-3.501 15.947-14.141 30.759-37.96 34.447l-118.209 18.235zM453.319 378.538c-14.737 2.274-24.838 16.297-22.521 31.34 2.332 15.073 16.181 25.409 30.919 23.134 14.752-2.274 24.823-16.312 22.491-31.369-2.302-15.029-16.151-25.379-30.89-23.104zM456.585 464.383l32.755 57.565c4.242 8.28 9.59 13.936 19.809 12.45l163.134-25.16c10.175-1.676 13.571-8.674 15.147-17.842l13.863-64.767-244.708 37.755zM678.553 343.784c-14.752 2.275-24.823 16.299-22.507 31.342 2.318 15.072 16.152 25.409 30.919 23.134 14.752-2.289 24.808-16.313 22.491-31.37-2.318-15.043-16.153-25.379-30.904-23.105zM952.401 609.877c-4.898 6.589-12.229 10.934-20.348 12.1l-82.391 11.895-15.030 81.632c-3.089 16.793-19.269 27.901-36.018 24.811l-301.749-55.539-234.709 33.878c-16.953 2.362-32.61-9.301-35.058-26.268l-8.484-58.804-130.307-24.024c-8.105-1.487-15.248-6.122-19.911-12.886-4.651-6.734-6.415-15.072-4.943-23.149l93.528-508.076c1.487-8.047 6.136-15.22 12.886-19.854 5.202-3.586 11.326-5.48 17.55-5.48 1.88 0 3.761 0.203 5.613 0.553l415.1 76.414 245.949-35.51c1.502-0.175 3.004-0.321 4.447-0.321 15.13 0 28.381 11.139 30.61 26.533l9.039 62.682 5.161 0.962c16.821 3.089 27.916 19.212 24.826 36.034l-13.82 75.074 43.905 304.402c1.168 8.105-0.916 16.384-5.844 22.944zM779.382 673.872l5.627-30.671-96.529 13.935 90.902 16.735zM173.246 319.032l-43.323 235.249 79.358 14.635-36.036-249.884zM212.241 107.109l-12.653 68.891 216.895-31.281-204.242-37.61zM879.281 472.968l-27.667-191.634-8.337-58.047-9.331-64.634-1.677-11.401-608.601 87.815 49.87 345.655 9.314 64.665 1.079 7.551 22.478-3.207 586.152-84.577-13.279-92.187z"  horiz-adv-x="1024" />

    
    <glyph glyph-name="weixin" unicode="&#58997;" d="M512.737-72.403c-246.99 0-447.905 200.954-447.905 447.911 0 246.943 200.915 447.898 447.905 447.898 246.947 0 447.904-200.954 447.904-447.898 0-246.959-200.957-447.911-447.904-447.911zM512.737 806.167c-237.488 0-430.666-193.172-430.666-430.658s193.178-430.658 430.666-430.658c237.445 0 430.665 193.172 430.665 430.658s-193.221 430.658-430.665 430.658zM615.26 441.374c7.010 0 13.962-0.534 20.772-1.311-18.72 87.122-111.827 151.754-217.996 151.754-118.794 0-216.116-80.98-216.116-183.832 0-59.269 32.413-108.029 86.481-145.877l-21.599-64.989 75.539 37.912c26.999-5.343 48.654-10.849 75.696-10.849 6.753 0 13.478 0.314 20.117 0.854-4.188 14.46-6.639 29.57-6.639 45.257-0.002 94.438 81.050 171.080 183.745 171.080zM499.101 499.944c16.213 0 27.028-10.671 27.028-26.949 0-16.206-10.813-27.055-27.028-27.055-16.228 0-32.484 10.849-32.484 27.055 0.001 16.278 16.256 26.949 32.484 26.949zM347.825 445.94c-16.213 0-32.598 10.849-32.598 27.055 0 16.277 16.384 26.949 32.598 26.949 16.185 0 26.913-10.671 26.913-26.949 0-16.206-10.728-27.055-26.913-27.055zM812.485 272.9c0 86.424-86.424 156.841-183.504 156.841-102.85 0-183.875-70.417-183.875-156.841 0-86.574 81.023-156.798 183.875-156.798 21.513 0 43.169 5.386 64.797 10.813l59.312-32.484-16.299 54.011c43.425 32.542 75.695 75.739 75.695 124.458zM569.34 299.956c-10.77 0-21.627 10.714-21.627 21.606 0 10.793 10.856 21.609 21.627 21.609 16.342 0 27.042-10.817 27.042-21.609-0-10.893-10.7-21.606-27.042-21.606zM688.205 299.956c-10.685 0-21.457 10.714-21.457 21.606 0 10.793 10.77 21.609 21.457 21.609 16.228 0 27.084-10.817 27.084-21.609 0.001-10.893-10.856-21.606-27.084-21.606z"  horiz-adv-x="1024" />

    
    <glyph glyph-name="xiangcunguihua" unicode="&#59055;" d="M457.801 381.556h-112.499v-252.674h112.499v252.674zM647.363 639.882h-105.271v-157.696l32.709-15.834 72.563 68.203v105.327zM238.596 663.451l260.999 109.883 245.53-109.012-5.906-8.494-239.596 105.89-253.124-106.143-7.903 7.875zM367.183 639.882h139.808v-140.427l-139.808 77.006v63.422zM62 417.583l254.53 144.59 272.586-142.93-4.5-8.972-268.086 140.315-245.812-142.283-8.719 9.281zM204.255 381.556h112.949v-252.674h-112.949v252.674zM514.725 174.923c-8.747-124.030 84.712-231.608 208.715-240.355 124.058-8.747 231.608 84.741 240.383 208.771 8.691 123.946-84.769 231.58-208.827 240.299l-15.778-224.521-224.493 15.806zM490.764 199.279l223.171-15.722-151.255 165.037c-40.669-37.519-67.725-89.802-71.916-149.315zM743.381 428.13c-64.463 4.528-124.368-18.731-168.383-59.372l151.312-165.065 1.294-0.084 15.778 224.521z"  horiz-adv-x="1027" />

    
    <glyph glyph-name="youxiandianshijiaofei" unicode="&#59372;" d="M822.652 727.527h-621.306c-59.631 0-108.139-48.512-108.139-108.138v-363.071c0-59.621 48.506-108.129 108.139-108.129h621.306c59.63 0 108.138 48.506 108.138 108.129v363.072c0 59.626-48.507 108.137-108.138 108.137zM863.855 250.615c0-19.879-16.173-36.035-36.044-36.035h-631.471c-19.872 0-36.046 16.159-36.046 36.035v373.403c0 19.875 16.174 36.046 36.046 36.046h631.471c19.871 0 36.044-16.171 36.044-36.046v-373.403zM742.359 105.446h-460.708c-17.935 0-32.49-14.547-32.49-32.49 0-17.934 14.556-32.482 32.49-32.482h460.708c17.945 0 32.483 14.547 32.483 32.482 0 17.943-14.538 32.49-32.483 32.49zM471.401 544.028h-145.75c-15.982 0-28.935-12.958-28.935-28.948 0-15.985 12.953-28.943 28.935-28.943h43.93v-125.505c0-15.985 12.954-28.948 28.954-28.948 15.981 0 28.934 12.963 28.934 28.948v125.506h43.931c15.999 0 28.954 12.958 28.954 28.943-0.002 15.99-12.957 28.947-28.954 28.947zM711.488 536.993c-14.24 7.264-31.68 1.601-38.933-12.633l-49.492-96.912-49.493 96.912c-7.269 14.236-24.711 19.898-38.95 12.633-14.24-7.269-19.888-24.707-12.637-38.946l74.996-146.8c4.77-9.345 13.922-14.89 23.655-15.631 0.81-0.068 1.601-0.053 2.429-0.060 0.81 0.009 1.601-0.009 2.411 0.060 9.751 0.74 18.903 6.286 23.655 15.631l74.996 146.8c7.253 14.24 1.604 31.677-12.636 38.946z"  horiz-adv-x="1024" />

    
    <glyph glyph-name="xiaolian" unicode="&#59052;" d="M520.77 107.918c-175.442 0-248.389 157.708-251.431 164.438l59.031 26.538c2.331-5.147 58.319-126.25 192.369-126.25 143.5 1.683 198.096 121.137 200.33 126.218l59.159-26.246c-2.945-6.635-74.113-162.529-256.059-164.665l-3.398-0.032zM525.172-42.603c-240.913 0-436.907 195.994-436.907 436.907s195.994 436.907 436.907 436.907 436.907-195.994 436.907-436.907-195.994-436.907-436.907-436.907zM525.172 766.483c-205.216 0-372.179-166.963-372.179-372.179s166.963-372.179 372.179-372.179 372.179 166.963 372.179 372.179-166.93 372.179-372.179 372.179zM347.917 470.163c0-27.833 22.558-50.454 50.454-50.454s50.454 22.59 50.454 50.454-22.558 50.454-50.454 50.454-50.454-22.59-50.454-50.454zM600.74 470.163c0-27.833 22.558-50.454 50.454-50.454s50.454 22.59 50.454 50.454-22.558 50.454-50.454 50.454-50.454-22.59-50.454-50.454z"  horiz-adv-x="1026" />

    
    </font>
</defs>
</svg>
